<?xml version="1.0" encoding="UTF-8"?>
<svg width="80px" height="80px" viewBox="0 0 80 80" version="1.1" xmlns="http://www.w3.org/2000/svg" xmlns:xlink="http://www.w3.org/1999/xlink">
    <title>Icon-Architecture/64/Arch_Open-3D-Engine_64</title>
    <defs>
        <linearGradient x1="0%" y1="100%" x2="100%" y2="0%" id="linearGradient-1">
            <stop stop-color="#4D27A8" offset="0%"></stop>
            <stop stop-color="#A166FF" offset="100%"></stop>
        </linearGradient>
    </defs>
    <g id="Icon-Architecture/64/Arch_Open-3D-Engine_64" stroke="none" stroke-width="1" fill="none" fill-rule="evenodd">
        <g id="Rectangle" fill="url(#linearGradient-1)">
            <rect x="0" y="0" width="80" height="80"></rect>
        </g>
        <g id="Icon-Service/64/Open-3D-Engine_64" transform="translate(8.000000, 8.000000)" fill="#FFFFFF">
            <path d="M51,44 L54,44 L54,41 L51,41 L51,44 Z M31.889,44.94 L33.889,44.949 L33.897,43 L36,43 L36,41 L33.905,41 L33.913,39.178 L31.913,39.17 L31.905,41 L30,41 L30,43 L31.897,43 L31.889,44.94 Z M57.888,48.32 C56.424,49.928 54.321,50.945 51.98,50.945 C50.772,50.945 49.63,50.667 48.601,50.186 C52.008,56.435 54.204,57.49 55.281,57.49 C56.05,57.49 56.63,57.28 57.053,56.848 C57.912,55.969 57.89,54.444 57.889,54.428 L57.888,48.32 Z M36.508,49.569 C35.42,50.125 34.192,50.445 32.889,50.445 C30.499,50.445 28.356,49.386 26.889,47.719 L26.89,54.402 C26.889,54.444 26.866,55.969 27.726,56.848 C28.148,57.28 28.728,57.49 29.496,57.49 C30.608,57.49 32.911,56.373 36.508,49.569 L36.508,49.569 Z M26.889,42.444 L26.889,42.445 C26.889,45.754 29.58,48.445 32.889,48.445 C36.197,48.445 38.889,45.753 38.889,42.445 C38.889,39.136 36.197,36.445 32.889,36.445 C29.58,36.445 26.889,39.136 26.889,42.444 L26.889,42.444 Z M43.98,42.945 C43.98,41.053 44.644,39.316 45.745,37.945 L39.498,37.945 C40.374,39.228 40.889,40.777 40.889,42.445 C40.889,43.737 40.574,44.954 40.027,46.035 L44.603,46.035 C44.203,45.084 43.98,44.04 43.98,42.945 L43.98,42.945 Z M51.98,36.945 C48.672,36.945 45.98,39.636 45.98,42.945 C45.98,46.253 48.672,48.945 51.98,48.945 C54.942,48.945 57.403,46.786 57.888,43.961 L57.888,43.945 L57.89,43.945 C57.945,43.619 57.98,43.286 57.98,42.945 C57.98,39.636 55.289,36.945 51.98,36.945 L51.98,36.945 Z M59.98,42.945 C59.98,43.337 59.943,43.72 59.888,44.097 L59.889,54.402 C59.892,54.467 59.944,56.739 58.495,58.233 C57.687,59.067 56.605,59.49 55.281,59.49 C52.191,59.49 48.999,55.846 45.257,48.035 L39.521,48.035 C35.778,55.846 32.586,59.49 29.496,59.49 C28.172,59.49 27.091,59.067 26.283,58.233 C24.834,56.739 24.887,54.467 24.89,54.371 L24.889,42.445 L24.889,42.445 L24.889,42.444 L24.889,41.945 L24.914,41.945 C25.174,37.767 28.646,34.445 32.889,34.445 C34.622,34.445 36.223,35.004 37.535,35.945 L48.116,35.945 C49.263,35.309 50.579,34.945 51.98,34.945 C56.392,34.945 59.98,38.533 59.98,42.945 L59.98,42.945 Z M31.673,17.763 C38.863,17.763 44.713,23.612 44.713,30.802 L46.713,30.802 C46.713,22.51 39.966,15.763 31.673,15.763 C23.38,15.763 16.634,22.51 16.634,30.802 C16.634,34.984 18.31,38.868 21.352,41.74 L22.725,40.285 C20.087,37.796 18.634,34.428 18.634,30.802 C18.634,23.612 24.483,17.763 31.673,17.763 L31.673,17.763 Z M60,26.475 L60,34 L58,34 L58,27.529 L54.207,27.728 C53.694,27.765 53.286,27.425 53.179,26.95 C52.629,24.523 51.677,22.225 50.347,20.12 C50.086,19.707 50.162,19.165 50.526,18.84 L53.064,16.575 L47.028,10.54 L44.757,13.085 C44.432,13.45 43.888,13.524 43.478,13.265 C41.371,11.937 39.076,10.985 36.654,10.437 C36.178,10.329 35.849,9.893 35.877,9.405 L36.07,6 L27.534,6 L27.728,9.402 C27.756,9.89 27.427,10.326 26.95,10.434 C24.525,10.982 22.229,11.932 20.122,13.261 C19.711,13.519 19.167,13.445 18.843,13.08 L16.575,10.54 L10.539,16.575 L13.082,18.844 C13.446,19.17 13.522,19.711 13.262,20.125 C11.93,22.233 10.976,24.53 10.428,26.95 C10.319,27.427 9.84,27.746 9.396,27.728 L6,27.534 L6,36.071 L9.387,35.877 C9.84,35.843 10.311,36.178 10.419,36.656 C10.966,39.084 11.917,41.385 13.248,43.494 C13.509,43.907 13.433,44.448 13.068,44.774 L10.54,47.03 L16.605,53.095 L20.282,49.304 L21.718,50.697 L17.334,55.217 C17.147,55.409 16.892,55.519 16.624,55.521 L16.616,55.521 C16.351,55.521 16.097,55.415 15.909,55.228 L8.377,47.695 C8.183,47.501 8.076,47.235 8.084,46.96 C8.092,46.685 8.213,46.425 8.418,46.242 L11.116,43.835 C10.035,41.978 9.214,39.995 8.669,37.921 L5.057,38.128 C4.786,38.139 4.513,38.045 4.313,37.856 C4.113,37.667 4,37.404 4,37.129 L4,26.475 C4,26.2 4.113,25.937 4.313,25.748 C4.513,25.56 4.785,25.459 5.057,25.477 L8.68,25.683 C9.227,23.615 10.048,21.637 11.13,19.783 L8.418,17.363 C8.213,17.18 8.092,16.92 8.084,16.645 C8.076,16.37 8.183,16.104 8.377,15.91 L15.909,8.377 C16.104,8.183 16.362,8.069 16.645,8.085 C16.92,8.093 17.179,8.213 17.362,8.418 L19.781,11.129 C21.635,10.05 23.613,9.231 25.684,8.685 L25.478,5.057 C25.462,4.782 25.56,4.513 25.749,4.314 C25.938,4.114 26.2,4 26.476,4 L37.129,4 C37.404,4 37.667,4.114 37.855,4.314 C38.045,4.513 38.143,4.782 38.127,5.057 L37.921,8.689 C39.989,9.235 41.966,10.054 43.818,11.133 L46.241,8.418 C46.425,8.213 46.684,8.093 46.959,8.085 C47.23,8.067 47.5,8.182 47.694,8.377 L55.228,15.91 C55.422,16.104 55.528,16.37 55.521,16.645 C55.513,16.92 55.392,17.18 55.187,17.363 L52.479,19.779 C53.56,21.633 54.381,23.614 54.929,25.687 L58.947,25.477 C59.212,25.461 59.489,25.561 59.688,25.75 C59.888,25.939 60,26.201 60,26.475 L60,26.475 Z" id="Fill-3"></path>
        </g>
    </g>
</svg>