<?xml version="1.0" encoding="UTF-8"?>
<svg width="90px" height="90px" viewBox="0 0 90 90" version="1.1" xmlns="http://www.w3.org/2000/svg" xmlns:xlink="http://www.w3.org/1999/xlink">
    <title>Icon-Architecture-Category/64/Game-Tech_64</title>
    <defs>
        <linearGradient x1="0%" y1="100%" x2="100%" y2="0%" id="linearGradient-1">
            <stop stop-color="#4D27A8" offset="0%"></stop>
            <stop stop-color="#A166FF" offset="100%"></stop>
        </linearGradient>
    </defs>
    <g id="Icon-Architecture-Category/64/Game-Tech_64" stroke="none" stroke-width="1" fill="none" fill-rule="evenodd">
        <rect id="Rectangle" fill="url(#linearGradient-1)" x="5" y="5" width="80" height="80"></rect>
        <rect id="#879196-Border-Copy-11" stroke="#879196" stroke-width="2" x="1" y="1" width="88" height="88"></rect>
        <g id="Icon-Category/64/Game-Tech_64" transform="translate(13.000000, 13.000000)" fill="#FFFFFF">
            <path d="M50.001,29 C50.001,30.103 49.104,31 48.001,31 C46.898,31 46.001,30.103 46.001,29 C46.001,27.897 46.898,27 48.001,27 C49.104,27 50.001,27.897 50.001,29 L50.001,29 Z M45.997,20.999 C45.997,19.896 46.895,18.999 47.997,18.999 C49.1,18.999 49.996,19.896 49.996,20.999 C49.996,22.101 49.1,22.998 47.997,22.998 C46.895,22.998 45.997,22.101 45.997,20.999 L45.997,20.999 Z M50,24.998 C50,23.895 50.897,22.998 52,22.998 C53.103,22.998 54,23.895 54,24.998 C54,26.101 53.103,26.998 52,26.998 C50.897,26.998 50,26.101 50,24.998 L50,24.998 Z M41.999,25.002 C41.999,23.9 42.896,23.003 43.998,23.003 C45.101,23.003 45.997,23.9 45.997,25.002 C45.997,26.104 45.101,27.001 43.998,27.001 C42.896,27.001 41.999,26.104 41.999,25.002 L41.999,25.002 Z M14.999,26 L10.998,26 L10.998,24 L14.999,24 L14.999,19.999 L16.999,19.999 L16.999,24 L21,24 L21,26 L16.999,26 L16.999,30.001 L14.999,30.001 L14.999,26 Z M57.999,44.388 C57.919,49.842 53.383,50 52.866,50 C48.522,50 44.701,41.386 42.128,35.455 C43.865,36.435 45.866,37 47.999,37 C52.171,37 55.848,34.858 57.999,31.619 L57.999,44.388 Z M11.133,50 C10.616,50 6.08,49.842 6,44.4 L6,31.619 C8.151,34.858 11.828,37 16,37 C18.133,37 20.134,36.435 21.871,35.455 C19.298,41.386 15.478,50 11.133,50 L11.133,50 Z M16,15 C21.514,15 26,19.486 26,25 C26,30.514 21.514,35 16,35 C10.486,35 6,30.514 6,25 C6,19.486 10.486,15 16,15 L16,15 Z M37.622,30.999 L26.377,30.999 C27.403,29.232 28,27.186 28,25 C28,21.925 26.828,19.126 24.919,17 L39.08,17 C37.171,19.126 35.999,21.925 35.999,25 C35.999,27.186 36.596,29.232 37.622,30.999 L37.622,30.999 Z M57.999,25 C57.999,30.514 53.513,35 47.999,35 C42.485,35 37.999,30.514 37.999,25 C37.999,19.486 42.485,15 47.999,15 C53.513,15 57.999,19.486 57.999,25 L57.999,25 Z M59.974,24.5 C59.709,18.116 54.447,13 47.999,13 C45.553,13 43.279,13.739 41.38,15 L22.619,15 C20.72,13.739 18.446,13 16,13 C9.552,13 4.29,18.116 4.025,24.5 L4,24.5 L4,44.409 C4.024,47.035 5.546,52 11.133,52 C16.877,52 20.915,42.689 23.862,35.891 C24.318,34.842 24.742,33.865 25.14,32.999 L38.86,32.999 C39.257,33.865 39.681,34.842 40.137,35.891 C43.084,42.689 47.122,52 52.866,52 C58.453,52 59.975,47.035 59.999,44.4 L59.999,24.5 L59.974,24.5 Z" id="Fill-1"></path>
        </g>
    </g>
</svg>