<?xml version="1.0" encoding="UTF-8"?>
<svg width="40px" height="40px" viewBox="0 0 40 40" version="1.1" xmlns="http://www.w3.org/2000/svg" xmlns:xlink="http://www.w3.org/1999/xlink">
    <title>Icon-Architecture/32/Arch_AWS-IoT-EduKit_32</title>
    <defs>
        <linearGradient x1="0%" y1="100%" x2="100%" y2="0%" id="linearGradient-1">
            <stop stop-color="#1B660F" offset="0%"></stop>
            <stop stop-color="#6CAE3E" offset="100%"></stop>
        </linearGradient>
    </defs>
    <g id="Icon-Architecture/32/Arch_AWS-IoT-EduKit_32" stroke="none" stroke-width="1" fill="none" fill-rule="evenodd">
        <g id="Rectangle" fill="url(#linearGradient-1)">
            <rect x="0" y="0" width="40" height="40"></rect>
        </g>
        <g id="Icon-Service/32/AWS-IoT-EduKit_32" transform="translate(4.000000, 4.000000)" fill="#FFFFFF">
            <path d="M7.501,24.001 C6.674,24.001 6.001,23.328 6.001,22.501 C6.001,21.674 6.674,21.001 7.501,21.001 C8.328,21.001 9.001,21.674 9.001,22.501 C9.001,23.328 8.328,24.001 7.501,24.001 L7.501,24.001 Z M13,17.501 L12,17.501 L12,22.001 L9.95,22.001 C9.718,20.861 8.709,20.001 7.501,20.001 C6.122,20.001 5.001,21.123 5.001,22.501 C5.001,23.879 6.122,25.001 7.501,25.001 C8.709,25.001 9.718,24.141 9.95,23.001 L12.5,23.001 C12.776,23.001 13,22.777 13,22.501 L13,17.501 Z M15.5,29.001 C14.673,29.001 14,28.328 14,27.501 C14,26.674 14.673,26.001 15.5,26.001 C16.327,26.001 17,26.674 17,27.501 C17,28.328 16.327,29.001 15.5,29.001 L15.5,29.001 Z M16,25.052 L16,18.013 L15,18.013 L15,25.052 C13.86,25.284 13,26.294 13,27.501 C13,28.879 14.121,30.001 15.5,30.001 C16.879,30.001 18,28.879 18,27.501 C18,26.294 17.14,25.284 16,25.052 L16,25.052 Z M23.499,24.001 C22.672,24.001 21.999,23.328 21.999,22.501 C21.999,21.674 22.672,21.001 23.499,21.001 C24.326,21.001 24.999,21.674 24.999,22.501 C24.999,23.328 24.326,24.001 23.499,24.001 L23.499,24.001 Z M23.499,20.001 C22.291,20.001 21.282,20.861 21.05,22.001 L19,22.001 L19,17.501 L18,17.501 L18,22.501 C18,22.777 18.224,23.001 18.5,23.001 L21.05,23.001 C21.282,24.141 22.291,25.001 23.499,25.001 C24.878,25.001 25.999,23.879 25.999,22.501 C25.999,21.123 24.878,20.001 23.499,20.001 L23.499,20.001 Z M15.5,10.971 L4.028,7 L15.5,3.029 L26.972,7 L15.5,10.971 Z M24.493,12.261 C24.323,14.092 20.753,16 15.5,16 C10.247,16 6.677,14.092 6.507,12.261 L8.259,9.523 L15.337,11.973 C15.39,11.991 15.444,12 15.5,12 C15.556,12 15.61,11.991 15.663,11.973 L22.741,9.523 L24.493,12.261 Z M28.663,6.527 L15.663,2.027 C15.558,1.991 15.442,1.991 15.337,2.027 L2.337,6.527 C2.135,6.597 2,6.787 2,7 C2,7.213 2.135,7.403 2.337,7.473 L7.287,9.186 L5.579,11.855 C5.527,11.936 5.5,12.029 5.5,12.125 C5.5,14.858 9.893,17 15.5,17 C21.107,17 25.5,14.858 25.5,12.125 C25.5,12.029 25.473,11.936 25.421,11.855 L23.713,9.186 L28.663,7.473 C28.865,7.403 29,7.213 29,7 C29,6.787 28.865,6.597 28.663,6.527 L28.663,6.527 Z" id="Fill-1"></path>
        </g>
    </g>
</svg>