<?xml version="1.0" encoding="UTF-8"?>
<svg width="64px" height="64px" viewBox="0 0 64 64" version="1.1" xmlns="http://www.w3.org/2000/svg" xmlns:xlink="http://www.w3.org/1999/xlink">
    <title>Icon-Architecture/48/Arch_Open-3D-Engine_48</title>
    <defs>
        <linearGradient x1="0%" y1="100%" x2="100%" y2="0%" id="linearGradient-1">
            <stop stop-color="#4D27A8" offset="0%"></stop>
            <stop stop-color="#A166FF" offset="100%"></stop>
        </linearGradient>
    </defs>
    <g id="Icon-Architecture/48/Arch_Open-3D-Engine_48" stroke="none" stroke-width="1" fill="none" fill-rule="evenodd">
        <g id="Rectangle" fill="url(#linearGradient-1)">
            <rect x="0" y="0" width="64" height="64"></rect>
        </g>
        <g id="Icon-Service/48/Open-3D-Engine_48" transform="translate(8.000000, 8.000000)" fill="#FFFFFF">
            <path d="M24,14 C29.514,14 34,18.486 34,24 L36,24 C36,17.383 30.617,12 24,12 C17.383,12 12,17.383 12,24 C12,27.336 13.337,30.436 15.764,32.727 L17.137,31.273 C15.114,29.363 14,26.78 14,24 C14,18.486 18.486,14 24,14 L24,14 Z M38.5,33.5 L41.5,33.5 L41.5,30.5 L38.5,30.5 L38.5,33.5 Z M23,34 L25,34 L25,33 L26,33 L26,31 L25,31 L25,30 L23,30 L23,31 L22,31 L22,33 L23,33 L23,34 Z M44.001,41.813 L44,36.459 C42.937,37.414 41.538,38 40,38 C39.209,38 38.455,37.842 37.763,37.563 C37.766,37.57 37.769,37.576 37.771,37.583 C38.833,40.139 40.436,44 42.158,44 C42.704,44 43.111,43.855 43.403,43.559 C43.911,43.042 44.007,42.123 44.001,41.813 L44.001,41.813 Z M26.228,37.584 C26.231,37.577 26.233,37.571 26.236,37.563 C25.544,37.842 24.791,38 24,38 C22.463,38 21.063,37.414 20,36.46 L20.001,41.788 C19.995,42.124 20.091,43.042 20.599,43.559 C20.89,43.856 21.297,44 21.843,44 C23.564,44 25.167,40.139 26.228,37.584 L26.228,37.584 Z M20,32 C20,34.206 21.794,36 24,36 C26.206,36 28,34.206 28,32 C28,29.794 26.206,28 24,28 C21.794,28 20,29.794 20,32 L20,32 Z M34,32 C34,30.907 34.299,29.884 34.812,29 L29.188,29 C29.701,29.884 30,30.907 30,32 C30,33.093 29.701,34.116 29.188,35 L34.812,35 C34.299,34.116 34,33.093 34,32 L34,32 Z M36,32 C36,34.206 37.794,36 40,36 C42.206,36 44,34.206 44,32 C44,29.794 42.206,28 40,28 C37.794,28 36,29.794 36,32 L36,32 Z M46.001,41.788 C46.007,41.956 46.025,43.727 44.845,44.945 C44.176,45.635 43.246,46 42.158,46 C39.101,46 37.34,41.758 35.925,38.35 C35.726,37.872 35.537,37.415 35.355,37 L28.645,37 C28.463,37.415 28.273,37.872 28.075,38.352 C26.66,41.759 24.9,46 21.843,46 C20.755,46 19.825,45.635 19.156,44.945 C17.976,43.727 17.995,41.955 18.001,41.757 L17.99993,32 C17.99993,28.691 20.691,26 24,26 C25.223,26 26.36,26.369 27.31,27 L36.69,27 C37.64,26.369 38.777,26 40,26 C43.309,26 46,28.691 46,32 L46.001,41.788 Z M13.676,38.534 L15.168,39.865 L12.849,42.466 C12.666,42.672 12.406,42.792 12.131,42.8 C12.121,42.801 12.112,42.801 12.103,42.801 C11.838,42.801 11.583,42.696 11.396,42.508 L5.493,36.605 C5.299,36.411 5.192,36.145 5.2,35.87 C5.208,35.595 5.329,35.335 5.534,35.152 L7.517,33.384 C6.732,32.008 6.128,30.546 5.712,29.021 L3.057,29.172 C2.787,29.188 2.513,29.089 2.313,28.901 C2.113,28.712 2,28.449 2,28.174 L2,19.826 C2,19.551 2.113,19.288 2.313,19.099 C2.513,18.911 2.786,18.81 3.057,18.828 L5.72,18.979 C6.137,17.458 6.742,16 7.527,14.626 L5.534,12.848 C5.329,12.665 5.208,12.405 5.2,12.13 C5.192,11.855 5.299,11.589 5.493,11.395 L11.396,5.493 C11.59,5.298 11.862,5.187 12.131,5.2 C12.406,5.208 12.666,5.329 12.849,5.534 L14.626,7.526 C15.999,6.744 17.458,6.14 18.98,5.724 L18.829,3.057 C18.813,2.782 18.911,2.513 19.101,2.313 C19.289,2.113 19.552,2 19.827,2 L28.174,2 C28.449,2 28.712,2.113 28.9,2.313 C29.09,2.513 29.187,2.782 29.172,3.057 L29.021,5.727 C30.541,6.143 31.999,6.747 33.371,7.53 L35.152,5.534 C35.336,5.329 35.595,5.208 35.87,5.2 C36.146,5.185 36.411,5.298 36.605,5.493 L42.508,11.395 C42.702,11.589 42.809,11.855 42.801,12.13 C42.793,12.405 42.672,12.665 42.467,12.848 L40.477,14.624 C41.261,15.998 41.866,17.457 42.283,18.979 L44.943,18.828 C45.213,18.811 45.487,18.911 45.687,19.099 C45.887,19.288 46,19.551 46,19.826 L46,26 L44,26 L44,20.885 L41.57,21.023 C41.103,21.039 40.646,20.723 40.538,20.246 C40.114,18.37 39.377,16.593 38.348,14.962 C38.087,14.549 38.163,14.007 38.527,13.682 L40.345,12.061 L35.939,7.655 L34.313,9.479 C33.987,9.843 33.443,9.919 33.033,9.659 C31.404,8.631 29.628,7.895 27.754,7.471 C27.277,7.363 26.948,6.927 26.977,6.438 L27.115,4 L20.886,4 L21.023,6.437 C21.052,6.925 20.723,7.361 20.246,7.469 C18.37,7.893 16.594,8.628 14.964,9.655 C14.553,9.914 14.01,9.84 13.685,9.475 L12.062,7.655 L7.655,12.061 L9.477,13.686 C9.841,14.011 9.917,14.552 9.656,14.966 C8.626,16.597 7.888,18.373 7.464,20.246 C7.355,20.723 6.878,21.039 6.432,21.023 L4,20.885 L4,27.115 L6.425,26.977 C6.878,26.948 7.349,27.277 7.457,27.755 C7.88,29.634 8.617,31.414 9.646,33.046 C9.906,33.459 9.83,34 9.466,34.325 L7.656,35.94 L12.061,40.345 L13.676,38.534 Z" id="Fill-1"></path>
        </g>
    </g>
</svg>