<?xml version="1.0" encoding="UTF-8"?>
<svg width="32px" height="32px" viewBox="0 0 32 32" version="1.1" xmlns="http://www.w3.org/2000/svg" xmlns:xlink="http://www.w3.org/1999/xlink">
    <title>Icon-Architecture-Category/16/Satellite_16</title>
    <defs>
        <linearGradient x1="0%" y1="100%" x2="100%" y2="0%" id="linearGradient-1">
            <stop stop-color="#2E27AD" offset="0%"></stop>
            <stop stop-color="#527FFF" offset="100%"></stop>
        </linearGradient>
    </defs>
    <g id="Icon-Architecture-Category/16/Satellite_16" stroke="none" stroke-width="1" fill="none" fill-rule="evenodd">
        <rect id="Rectangle" fill="url(#linearGradient-1)" x="4" y="4" width="24" height="24"></rect>
        <rect id="#879196-Border-Copy-22" stroke="#879196" stroke-width="2" x="1" y="1" width="30" height="30"></rect>
        <g id="Icon-Category/16/Satellite_16" transform="translate(8.000000, 8.000000)" fill="#FFFFFF">
            <path d="M7.8206422,13.0315 C6.6566422,13.0315 5.6046422,12.5755 4.8046422,11.8485 C6.0196422,11.7765 7.3476422,11.5355 8.6896422,11.1185 C9.9806422,10.7185 11.1646422,10.1865 12.1816422,9.5875 C11.7046422,11.5585 9.9366422,13.0315 7.8206422,13.0315 M1.0216422,9.7835 C0.887642195,9.3535 1.3626422,8.4725 2.3936422,7.6785 C2.3496422,7.9575 2.3206422,8.2405 2.3206422,8.5315 C2.3206422,9.3345 2.4976422,10.0955 2.8086422,10.7835 C1.8256422,10.6215 1.1706422,10.2615 1.0216422,9.7835 M7.8206422,4.0315 C10.2346422,4.0315 12.1946422,5.9455 12.3006422,8.3335 C11.2406422,9.0565 9.8946422,9.6975 8.3926422,10.1635 C6.8326422,10.6485 5.3056422,10.8775 3.9906422,10.8635 C3.5746422,10.1805 3.3206422,9.3875 3.3206422,8.5315 C3.3206422,6.0505 5.3396422,4.0315 7.8206422,4.0315 M15.2096422,5.3805 C15.1216422,5.0975 14.8516422,4.7935 14.5976422,4.5545 C14.8636422,4.1655 14.8416422,3.6385 14.4966422,3.2925 C14.1056422,2.9025 13.4726422,2.9025 13.0826422,3.2925 C12.6916422,3.6835 12.6916422,4.3165 13.0826422,4.7075 C13.2046422,4.8295 13.3526422,4.8995 13.5076422,4.9455 C13.8506422,5.1935 14.2056422,5.5555 14.2546422,5.6775 C14.4096422,6.1775 14.0296422,6.8885 13.2376422,7.6145 C12.7996422,5.0175 10.5396422,3.0315 7.8206422,3.0315 C5.6176422,3.0315 3.7186422,4.3365 2.8416422,6.2115 C0.886642195,7.2655 -0.301357805,8.8945 0.0666421953,10.0805 C0.372642195,11.0645 1.4906422,11.6905 3.2166422,11.8445 C3.2906422,11.8505 3.3716422,11.8485 3.4476422,11.8535 C4.4536422,13.1745 6.0376422,14.0315 7.8206422,14.0315 C10.7496422,14.0315 13.1436422,11.7285 13.3046422,8.8395 C13.4036422,8.7645 13.5186422,8.6945 13.6116422,8.6175 C14.9476422,7.5135 15.5146422,6.3645 15.2096422,5.3805" id="Satellite_Category-Icon_16_Squid"></path>
        </g>
    </g>
</svg>