<?xml version="1.0" encoding="UTF-8"?>
<svg width="32px" height="32px" viewBox="0 0 32 32" version="1.1" xmlns="http://www.w3.org/2000/svg" xmlns:xlink="http://www.w3.org/1999/xlink">
    <title>Icon-Architecture-Category/16/AWS-Cost-Management_16</title>
    <defs>
        <linearGradient x1="0%" y1="100%" x2="100%" y2="0%" id="linearGradient-1">
            <stop stop-color="#1B660F" offset="0%"></stop>
            <stop stop-color="#6CAE3E" offset="100%"></stop>
        </linearGradient>
    </defs>
    <g id="Icon-Architecture-Category/16/AWS-Cost-Management_16" stroke="none" stroke-width="1" fill="none" fill-rule="evenodd">
        <rect id="Rectangle" fill="url(#linearGradient-1)" x="4" y="4" width="24" height="24"></rect>
        <rect id="#879196-Border-Copy-3" stroke="#879196" stroke-width="2" x="1" y="1" width="30" height="30"></rect>
        <g id="Icon-Category/16/Cost-Management_16" transform="translate(8.000000, 8.000000)" fill="#FFFFFF">
            <path d="M7,14.0015756 L8,14.0015756 L8,13.0015756 L7,13.0015756 L7,14.0015756 Z M4,14.0015756 L6,14.0015756 L6,13.0015756 L4,13.0015756 L4,14.0015756 Z M7,11.0015756 L8,11.0015756 L8,10.0015756 L7,10.0015756 L7,11.0015756 Z M4,11.0015756 L6,11.0015756 L6,10.0015756 L4,10.0015756 L4,11.0015756 Z M10,13.0015756 L11,13.0015756 L11,11.0015756 L10,11.0015756 L10,13.0015756 Z M11.5,10.0015756 L9.5,10.0015756 C9.224,10.0015756 9,10.2255756 9,10.5015756 L9,13.5015756 C9,13.7775756 9.224,14.0015756 9.5,14.0015756 L11.5,14.0015756 C11.776,14.0015756 12,13.7775756 12,13.5015756 L12,10.5015756 C12,10.2255756 11.776,10.0015756 11.5,10.0015756 L11.5,10.0015756 Z M5,8.00157563 L11,8.00157563 L11,7.00157563 L5,7.00157563 L5,8.00157563 Z M4,6.50157563 L4,8.50157563 C4,8.77757563 4.224,9.00157563 4.5,9.00157563 L11.5,9.00157563 C11.776,9.00157563 12,8.77757563 12,8.50157563 L12,6.50157563 C12,6.22557563 11.776,6.00157563 11.5,6.00157563 L4.5,6.00157563 C4.224,6.00157563 4,6.22557563 4,6.50157563 L4,6.50157563 Z M14,15.0015756 L2,15.0015756 L2,5.00157563 L5.5,5.00157563 L6,5.00157563 L9,5.00157563 L9.5,5.00157563 L14,5.00157563 L14,15.0015756 Z M5.945,1.00157563 L8.5,1.00157563 C8.971,1.00157563 9,1.49657563 9,1.50157563 L9,4.00157563 L6,4.00157563 L6,1.50157563 C6,1.33757563 5.985,1.16757563 5.945,1.00157563 L5.945,1.00157563 Z M4,2.00157563 L4,1.50157563 C4,1.24157563 4.061,1.00157563 4.5,1.00157563 C4.898,1.00157563 5,1.05057563 5,1.50157563 L5,2.00157563 L4,2.00157563 Z M14.5,4.00157563 L10,4.00157563 L10,1.50157563 C10,0.878575626 9.534,0.00157562616 8.5,0.00157562616 L4.523,0.00157562616 C3.58,-0.0354243738 3,0.582575626 3,1.50157563 L3,2.50157563 C3,2.77757563 3.224,3.00157563 3.5,3.00157563 L5,3.00157563 L5,4.00157563 L1.5,4.00157563 C1.224,4.00157563 1,4.22557563 1,4.50157563 L1,15.5015756 C1,15.7775756 1.224,16.0015756 1.5,16.0015756 L14.5,16.0015756 C14.776,16.0015756 15,15.7775756 15,15.5015756 L15,4.50157563 C15,4.22557563 14.776,4.00157563 14.5,4.00157563 L14.5,4.00157563 Z" id="Fill-5"></path>
        </g>
    </g>
</svg>