<?xml version="1.0" encoding="UTF-8"?>
<svg width="32px" height="32px" viewBox="0 0 32 32" version="1.1" xmlns="http://www.w3.org/2000/svg" xmlns:xlink="http://www.w3.org/1999/xlink">
    <title>Icon-Architecture-Category/16/Blockchain_16</title>
    <defs>
        <linearGradient x1="0%" y1="100%" x2="100%" y2="0%" id="linearGradient-1">
            <stop stop-color="#C8511B" offset="0%"></stop>
            <stop stop-color="#FF9900" offset="100%"></stop>
        </linearGradient>
    </defs>
    <g id="Icon-Architecture-Category/16/Blockchain_16" stroke="none" stroke-width="1" fill="none" fill-rule="evenodd">
        <rect id="Rectangle" fill="url(#linearGradient-1)" x="4" y="4" width="24" height="24"></rect>
        <rect id="#879196-Border-Copy-4" stroke="#879196" stroke-width="2" x="1" y="1" width="30" height="30"></rect>
        <g id="Icon-Category/16/Blockchain_16" transform="translate(9.000000, 8.000000)" fill="#FFFFFF">
            <path d="M13,9 L15,9 L15,7 L13,7 L13,9 Z M7,9 L9,9 L9,7 L7,7 L7,9 Z M1,9 L3,9 L3,7 L1,7 L1,9 Z M12,7.5 L10,7.5 L10,6 L6,6 L6,7.5 L4,7.5 L4,6 L0,6 L0,10 L4,10 L4,8.5 L6,8.5 L6,10 L10,10 L10,8.5 L12,8.5 L12,10 L16,10 L16,6 L12,6 L12,7.5 Z" id="Blockchain_Category-Icon_16_Squid--"></path>
        </g>
    </g>
</svg>