<?xml version="1.0" encoding="UTF-8"?>
<svg width="32px" height="32px" viewBox="0 0 32 32" version="1.1" xmlns="http://www.w3.org/2000/svg" xmlns:xlink="http://www.w3.org/1999/xlink">
    <title>Icon-Architecture-Category/16/Serverless_16</title>
    <defs>
        <linearGradient x1="0%" y1="100%" x2="100%" y2="0%" id="linearGradient-1">
            <stop stop-color="#4D27A8" offset="0%"></stop>
            <stop stop-color="#A166FF" offset="100%"></stop>
        </linearGradient>
    </defs>
    <g id="Icon-Architecture-Category/16/Serverless_16" stroke="none" stroke-width="1" fill="none" fill-rule="evenodd">
        <rect id="#879196-Border-Copy-23" stroke="#879196" stroke-width="2" x="1" y="1" width="30" height="30"></rect>
        <rect id="Rectangle" fill="url(#linearGradient-1)" x="4" y="4" width="24" height="24"></rect>
        <g id="Icon-Category/16/Serverless_16" transform="translate(8.000000, 8.000000)" fill="#FFFFFF">
            <path d="M14.432,11.375 C13.997,11.79 13.352,12.008 12.564,12.008 C10.948,12.008 9.783,11.062 8.745,9.913 C9.77,8.791 10.806,7.819 12.391,7.819 C14.106,7.819 15.002,8.926 15.002,10.02 C15.002,10.542 14.8,11.024 14.432,11.375 M8.088,9.149 C7.99,9.03 7.891,8.91 7.792,8.791 C7.47,8.399 7.156,8.032 6.839,7.686 L8.064,7.685 L8.064,6.685 L5.56,6.687 C5.427,6.687 5.3,6.739 5.206,6.833 C5.113,6.927 5.06,7.055 5.06,7.188 L5.064,9.688 L6.064,9.686 L6.062,8.321 C6.376,8.661 6.693,9.028 7.02,9.426 C7.149,9.582 7.279,9.74 7.411,9.898 C6.389,11.025 5.381,12.025 3.869,12.025 C2.073,12.025 1,11.244 1,9.936 C1,8.489 2.243,7.625 3.444,7.625 C3.72,7.625 3.944,7.401 3.944,7.125 C3.944,5.168 5.662,4 7.324,4 C8.308,4 9.619,4.248 10.273,5.429 C10.361,5.588 10.529,5.687 10.71,5.687 L10.953,5.687 C11.807,5.687 12.382,6.102 12.568,6.822 C12.509,6.82 12.451,6.819 12.391,6.819 C10.448,6.819 9.173,7.974 8.088,9.149 M13.611,6.979 C13.452,5.604 12.44,4.702 10.991,4.687 C10.258,3.596 8.969,3 7.324,3 C5.036,3 3.21,4.572 2.97,6.656 C1.44,6.863 0,8.056 0,9.936 C0,11.361 1.013,13.025 3.869,13.025 C5.76,13.025 6.961,11.875 8.071,10.658 C9.222,11.917 10.597,13.008 12.564,13.008 C13.614,13.008 14.498,12.694 15.122,12.099 C15.69,11.557 16.002,10.818 16.002,10.02 C16.002,8.729 15.186,7.425 13.611,6.979" id="Serverless_16"></path>
        </g>
    </g>
</svg>