<?xml version="1.0" encoding="UTF-8"?>
<svg width="32px" height="32px" viewBox="0 0 32 32" version="1.1" xmlns="http://www.w3.org/2000/svg" xmlns:xlink="http://www.w3.org/1999/xlink">
    <title>Icon-Architecture-Category/16/Game-Tech_16</title>
    <defs>
        <linearGradient x1="0%" y1="100%" x2="100%" y2="0%" id="linearGradient-1">
            <stop stop-color="#4D27A8" offset="0%"></stop>
            <stop stop-color="#A166FF" offset="100%"></stop>
        </linearGradient>
    </defs>
    <g id="Icon-Architecture-Category/16/Game-Tech_16" stroke="none" stroke-width="1" fill="none" fill-rule="evenodd">
        <rect id="Rectangle" fill="url(#linearGradient-1)" x="4" y="4" width="24" height="24"></rect>
        <rect id="#879196-Border-Copy-12" stroke="#879196" stroke-width="2" x="1" y="1" width="30" height="30"></rect>
        <g id="Icon-Category/16/Game-Tech_16" transform="translate(8.000000, 8.000000)" fill="#FFFFFF">
            <path d="M12.5025533,6.248 C12.9165533,6.248 13.2525533,5.912 13.2525533,5.498 C13.2525533,5.084 12.9165533,4.748 12.5025533,4.748 C12.0885533,4.748 11.7525533,5.084 11.7525533,5.498 C11.7525533,5.912 12.0885533,6.248 12.5025533,6.248 L12.5025533,6.248 Z M15.0005545,11.844 L15.0005545,7.941 C14.3645533,8.593 13.4805533,9 12.5005533,9 C11.9925533,9 11.5115533,8.885 11.0755533,8.689 C11.0835533,8.707 11.0895533,8.724 11.0975533,8.741 C11.7205533,10.23 12.8795533,13 13.8615533,13 C14.2305533,13 14.5005533,12.906 14.6875533,12.712 C15.0045533,12.383 15.0005545,11.849 15.0005545,11.844 L15.0005545,11.844 Z M4.90455325,8.741 C4.91155325,8.724 4.91855325,8.707 4.92655325,8.689 C4.48955325,8.885 4.00955325,9 3.50055325,9 C2.52155325,9 1.63655325,8.593 1.00054139,7.941 L1.00054139,11.826 C1.00054139,11.845 0.993553254,12.385 1.31955325,12.716 C1.50555325,12.907 1.77455325,13 2.14055325,13 C3.12155325,13 4.28155325,10.23 4.90455325,8.741 L4.90455325,8.741 Z M1.00055325,5.5 C1.00055325,6.878 2.12155325,8 3.50055325,8 C4.87955325,8 6.00055325,6.878 6.00055325,5.5 C6.00055325,4.121 4.87955325,3 3.50055325,3 C2.12155325,3 1.00055325,4.121 1.00055325,5.5 L1.00055325,5.5 Z M9.00055325,5.5 C9.00055325,4.961 9.13355325,4.456 9.35155325,4 L6.64955325,4 C6.86855325,4.456 7.00055325,4.961 7.00055325,5.5 C7.00055325,6.039 6.86855325,6.543 6.64955325,7 L9.35155325,7 C9.13355325,6.543 9.00055325,6.039 9.00055325,5.5 L9.00055325,5.5 Z M10.0005533,5.5 C10.0005533,6.878 11.1215533,8 12.5005533,8 C13.8795533,8 15.0005533,6.878 15.0005533,5.5 C15.0005533,4.121 13.8795533,3 12.5005533,3 C11.1215533,3 10.0005533,4.121 10.0005533,5.5 L10.0005533,5.5 Z M15.4075533,13.407 C15.0265533,13.8 14.5065533,14 13.8615533,14 C12.2135533,14 11.0825533,11.298 10.1745533,9.128 C9.99655325,8.702 9.83455325,8.314 9.68855325,8 L6.31355325,8 C6.16655325,8.314 6.00455325,8.702 5.82655325,9.128 C4.91855325,11.298 3.78755325,14 2.14055325,14 C1.49555325,14 0.976553254,13.801 0.595553254,13.407 C-0.0134467462,12.777 -0.00244674619,11.907 0.000553253814,11.809 L0.000553253814,5.5 C0.000553253814,3.57 1.57155325,2 3.50055325,2 C4.45055325,2 5.31155325,2.383 5.94255325,3 L10.0595533,3 C10.6905533,2.383 11.5505533,2 12.5005533,2 C14.4305533,2 16.0005533,3.57 16.0005533,5.5 L16.0005533,11.826 C16.0035533,11.907 16.0155533,12.777 15.4075533,13.407 L15.4075533,13.407 Z M3.00055325,6 L2.00055325,6 L2.00055325,5 L3.00055325,5 L3.00055325,4 L4.00055325,4 L4.00055325,5 L5.00055325,5 L5.00055325,6 L4.00055325,6 L4.00055325,7 L3.00055325,7 L3.00055325,6 Z" id="Fill-7"></path>
        </g>
    </g>
</svg>