<?xml version="1.0" encoding="UTF-8"?>
<svg width="32px" height="32px" viewBox="0 0 32 32" version="1.1" xmlns="http://www.w3.org/2000/svg" xmlns:xlink="http://www.w3.org/1999/xlink">
    <title>Icon-Architecture-Category/16/Networking-Content-Delivery_16</title>
    <defs>
        <linearGradient x1="0%" y1="100%" x2="100%" y2="0%" id="linearGradient-1">
            <stop stop-color="#4D27A8" offset="0%"></stop>
            <stop stop-color="#A166FF" offset="100%"></stop>
        </linearGradient>
    </defs>
    <g id="Icon-Architecture-Category/16/Networking-Content-Delivery_16" stroke="none" stroke-width="1" fill="none" fill-rule="evenodd">
        <rect id="Rectangle" fill="url(#linearGradient-1)" x="4" y="4" width="24" height="24"></rect>
        <rect id="#879196-Border-Copy-19" stroke="#879196" stroke-width="2" x="1" y="1" width="30" height="30"></rect>
        <g id="Icon-Category/16/Networking-Content-Delivery_16" transform="translate(8.000000, 8.000000)" fill="#FFFFFF">
            <path d="M14,12.5005067 C14,13.0515067 13.552,13.5005067 13,13.5005067 C12.448,13.5005067 12,13.0515067 12,12.5005067 C12,11.9495067 12.448,11.5005067 13,11.5005067 C13.552,11.5005067 14,11.9495067 14,12.5005067 L14,12.5005067 Z M9,14.0005067 C9,14.5515067 8.552,15.0005067 8,15.0005067 C7.448,15.0005067 7,14.5515067 7,14.0005067 C7,13.4495067 7.448,13.0005067 8,13.0005067 C8.552,13.0005067 9,13.4495067 9,14.0005067 L9,14.0005067 Z M3,13.5005067 C2.448,13.5005067 2,13.0515067 2,12.5005067 C2,11.9495067 2.448,11.5005067 3,11.5005067 C3.552,11.5005067 4,11.9495067 4,12.5005067 C4,13.0515067 3.552,13.5005067 3,13.5005067 L3,13.5005067 Z M3,5.43150668 C3.004,5.19250668 3.104,4.00450668 4.711,4.00450668 C4.987,4.00450668 5.211,3.78050668 5.211,3.50450668 C5.211,2.70450668 5.427,2.08450668 5.853,1.66050668 C6.508,1.00750668 7.476,1.00050668 7.5,1.00050668 C8.266,1.00050668 9.599,1.16750668 9.923,2.28250668 C9.996,2.53650668 10.254,2.68850668 10.514,2.63050668 C10.98,2.52550668 11.406,2.61550668 11.652,2.87550668 C11.843,3.07650668 11.897,3.35850668 11.809,3.67150668 C11.766,3.82250668 11.795,3.98450668 11.89,4.11050668 C11.984,4.23550668 12.132,4.30950668 12.289,4.30950668 C13.551,4.30950668 14,4.92450668 14,5.50050668 C14,6.22550668 13.634,7.00050668 12.605,7.00050668 L4.711,7.00050668 C3.8,7.00050668 3,6.26550668 3,5.43150668 L3,5.43150668 Z M12.605,8.00050668 C14.016,8.00050668 15,6.97250668 15,5.50050668 C15,4.52550668 14.33,3.54250668 12.851,3.34450668 C12.841,2.90950668 12.68,2.50550668 12.379,2.18750668 C11.976,1.76150668 11.381,1.55250668 10.725,1.59250668 C10.228,0.57450668 9.079,0.000506679677 7.507,0.000506679677 C7.438,-0.00349332032 6.117,-0.00649332032 5.156,0.94150668 C4.623,1.46850668 4.313,2.16950668 4.232,3.03250668 C2.48,3.25050668 2,4.65550668 2,5.42750668 C2,6.82250668 3.241,8.00050668 4.711,8.00050668 L6.793,8.00050668 L4.01,10.7835067 C3.712,10.6085067 3.37,10.5005067 3,10.5005067 C1.897,10.5005067 1,11.3975067 1,12.5005067 C1,13.6035067 1.897,14.5005067 3,14.5005067 C4.103,14.5005067 5,13.6035067 5,12.5005067 C5,12.1305067 4.893,11.7885067 4.717,11.4905067 L7.5,8.70750668 L7.5,12.0715067 C6.64,12.2945067 6,13.0715067 6,14.0005067 C6,15.1035067 6.897,16.0005067 8,16.0005067 C9.103,16.0005067 10,15.1035067 10,14.0005067 C10,13.0715067 9.36,12.2945067 8.5,12.0715067 L8.5,8.70750668 L11.283,11.4905067 C11.107,11.7885067 11,12.1305067 11,12.5005067 C11,13.6035067 11.897,14.5005067 13,14.5005067 C14.103,14.5005067 15,13.6035067 15,12.5005067 C15,11.3975067 14.103,10.5005067 13,10.5005067 C12.63,10.5005067 12.288,10.6085067 11.99,10.7835067 L9.207,8.00050668 L12.605,8.00050668 Z" id="Networking-Content-Delivery_Category-Icon_16_Squid"></path>
        </g>
    </g>
</svg>