<?xml version="1.0" encoding="UTF-8"?>
<svg width="32px" height="32px" viewBox="0 0 32 32" version="1.1" xmlns="http://www.w3.org/2000/svg" xmlns:xlink="http://www.w3.org/1999/xlink">
    <title>Icon-Architecture-Category/16/Quantum-Technologies_16</title>
    <defs>
        <linearGradient x1="0%" y1="100%" x2="100%" y2="0%" id="linearGradient-1">
            <stop stop-color="#C8511B" offset="0%"></stop>
            <stop stop-color="#FF9900" offset="100%"></stop>
        </linearGradient>
    </defs>
    <g id="Icon-Architecture-Category/16/Quantum-Technologies_16" stroke="none" stroke-width="1" fill="none" fill-rule="evenodd">
        <rect id="Rectangle" fill="url(#linearGradient-1)" x="4" y="4" width="24" height="24"></rect>
        <rect id="#879196-Border-Copy-20" stroke="#879196" stroke-width="2" x="1" y="1" width="30" height="30"></rect>
        <g id="Icon-Category/16/Quantum-Technologies_16" transform="translate(8.000000, 8.000000)" fill="#FFFFFF">
            <path d="M12.5546965,8.669 C11.6956965,9.395 10.7006965,10.088 9.67169652,10.682 C9.53469652,10.761 9.39769652,10.826 9.25969652,10.902 C10.1916965,11.297 11.0896965,11.596 11.8916965,11.751 C13.3206965,12.025 14.0196965,11.787 14.1856965,11.5 C14.4486965,11.044 13.8836965,9.944 12.5546965,8.669 M6.98669652,10.902 C6.84869652,10.826 6.71069652,10.761 6.57469652,10.682 C5.54569652,10.088 4.55069652,9.395 3.69169652,8.669 C2.36269652,9.944 1.79769652,11.044 2.06069652,11.5 C2.22669652,11.786 2.92569652,12.025 4.35469652,11.751 C5.15669652,11.596 6.05469652,11.297 6.98669652,10.902 M3.69169652,7.33 C4.55069652,6.604 5.54569652,5.911 6.57469652,5.317 C6.71069652,5.238 6.84869652,5.173 6.98669652,5.097 C6.05469652,4.702 5.15669652,4.403 4.35469652,4.249 C3.90869652,4.163 3.53469652,4.127 3.22569652,4.127 C2.54169652,4.127 2.17469652,4.301 2.06069652,4.5 C1.79769652,4.955 2.36269652,6.055 3.69169652,7.33 M9.17169652,9.816 C10.2056965,9.219 11.0706965,8.6 11.7936965,8 C11.0706965,7.399 10.2056965,6.78 9.17169652,6.183 C8.82269652,5.981 8.47169652,5.8 8.12269652,5.624 C7.77469652,5.8 7.42369652,5.981 7.07469652,6.183 C6.03969652,6.78 5.17569652,7.399 4.45169652,8 C5.17569652,8.6 6.03969652,9.219 7.07469652,9.816 C7.42369652,10.018 7.77469652,10.199 8.12269652,10.376 C8.47169652,10.199 8.82269652,10.018 9.17169652,9.816 M9.25969652,5.097 C9.39769652,5.173 9.53469652,5.238 9.67169652,5.317 C10.7006965,5.911 11.6956965,6.604 12.5546965,7.33 C13.8836965,6.055 14.4486965,4.955 14.1856965,4.5 C14.0716965,4.302 13.7026965,4.127 13.0206965,4.127 C12.7106965,4.127 12.3366965,4.163 11.8916965,4.249 C11.0896965,4.403 10.1916965,4.702 9.25969652,5.097 M15.0506965,12 C14.8016965,12.431 14.2506965,12.875 13.0366965,12.875 C12.6586965,12.875 12.2186965,12.832 11.7026965,12.732 C10.6196965,12.524 9.38469652,12.087 8.12269652,11.488 C6.86169652,12.087 5.62569652,12.524 4.54269652,12.732 C4.02769652,12.832 3.58569652,12.875 3.20869652,12.875 C1.99469652,12.875 1.44469652,12.431 1.19569652,12 C0.590696515,10.953 1.44769652,9.452 2.95169652,8 C1.44769652,6.547 0.590696515,5.046 1.19569652,4 C1.52169652,3.433 2.36969652,2.847 4.54269652,3.267 C5.62569652,3.475 6.86169652,3.912 8.12269652,4.511 C9.38469652,3.912 10.6196965,3.475 11.7026965,3.267 C13.8786965,2.845 14.7236965,3.434 15.0506965,4 C15.6556965,5.046 14.7986965,6.547 13.2936965,8 C14.7986965,9.452 15.6556965,10.953 15.0506965,12 M8.12269652,1 C8.44869652,1 8.95969652,1.44 9.41969652,2.674 L10.3576965,2.325 C9.64069652,0.403 8.74669652,0 8.12269652,0 C7.49869652,0 6.60569652,0.403 5.88869652,2.325 L6.82569652,2.674 C7.28569652,1.44 7.79769652,1 8.12269652,1 M9.41969652,13.325 L10.3576965,13.674 C9.64069652,15.596 8.74669652,16 8.12269652,16 C7.49869652,16 6.60569652,15.596 5.88869652,13.674 L6.82569652,13.325 C7.28569652,14.56 7.79769652,15 8.12269652,15 C8.44869652,15 8.95969652,14.56 9.41969652,13.325" id="Quantum-Technologies_Category-Icon_16_Squid"></path>
        </g>
    </g>
</svg>