<?xml version="1.0" encoding="UTF-8"?>
<svg width="32px" height="32px" viewBox="0 0 32 32" version="1.1" xmlns="http://www.w3.org/2000/svg" xmlns:xlink="http://www.w3.org/1999/xlink">
    <title>Icon-Architecture-Category/16/Analytics_16</title>
    <defs>
        <linearGradient x1="0%" y1="100%" x2="100%" y2="0%" id="linearGradient-1">
            <stop stop-color="#4D27A8" offset="0%"></stop>
            <stop stop-color="#A166FF" offset="100%"></stop>
        </linearGradient>
    </defs>
    <g id="Icon-Architecture-Category/16/Analytics_16" stroke="none" stroke-width="1" fill="none" fill-rule="evenodd">
        <rect id="Rectangle" fill="url(#linearGradient-1)" x="4" y="4" width="24" height="24"></rect>
        <rect id="#879196-Border" stroke="#879196" stroke-width="2" x="1" y="1" width="30" height="30"></rect>
        <g id="Icon-Category/16/Analytics_16" transform="translate(8.000000, 8.000000)" fill="#FFFFFF">
            <path d="M12.0001883,4.533 L12.0001883,7 L11.0001883,7 L11.0001883,5.833 L8.34518834,8.362 C8.14818834,8.549 7.83918834,8.546 7.64618834,8.353 L6.50018834,7.207 L4.35418834,9.353 L3.64618834,8.646 L6.14618834,6.146 C6.34218834,5.951 6.65818834,5.951 6.85418834,6.146 L8.00918834,7.301 L10.3911883,5 L9.00018834,5 L9.00018834,4 L11.5001883,4 C11.7761883,4 12.0001883,4.257 12.0001883,4.533 L12.0001883,4.533 Z M14.1401883,14 L1.86018834,14 L1.19418834,12 L14.8061883,12 L14.1401883,14 Z M2.00018834,2.452 C2.00018834,2.207 2.16418834,2 2.35718834,2 L13.6431883,2 C13.8361883,2 14.0001883,2.207 14.0001883,2.452 L14.0001883,11 L2.00018834,11 L2.00018834,2.452 Z M15.9051883,11.207 C15.8121883,11.077 15.6611883,11 15.5001883,11 L15.0001883,11 L15.0001883,2.452 C15.0001883,1.651 14.3911883,1 13.6431883,1 L2.35718834,1 C1.60918834,1 1.00018834,1.651 1.00018834,2.452 L1.00018834,11 L0.500188342,11 C0.339188342,11 0.188188342,11.077 0.095188342,11.207 C0.000188342023,11.338 -0.024811658,11.506 0.025188342,11.658 L1.02518834,14.655 C1.09418834,14.859 1.28518834,14.996 1.50018834,14.996 L14.5001883,14.996 C14.7151883,14.996 14.9061883,14.859 14.9751883,14.655 L15.9751883,11.658 C16.0251883,11.506 16.0001883,11.338 15.9051883,11.207 L15.9051883,11.207 Z" id="Analytics_Category-Icon_64_Squid-"></path>
        </g>
    </g>
</svg>