<?xml version="1.0" encoding="UTF-8"?>
<svg width="24px" height="24px" viewBox="0 0 24 24" version="1.1" xmlns="http://www.w3.org/2000/svg" xmlns:xlink="http://www.w3.org/1999/xlink">
    <title>Icon-Architecture/16/Arch_AWS-IoT-EduKit_16</title>
    <defs>
        <linearGradient x1="0%" y1="100%" x2="100%" y2="0%" id="linearGradient-1">
            <stop stop-color="#1B660F" offset="0%"></stop>
            <stop stop-color="#6CAE3E" offset="100%"></stop>
        </linearGradient>
    </defs>
    <g id="Icon-Architecture/16/Arch_AWS-IoT-EduKit_16" stroke="none" stroke-width="1" fill="none" fill-rule="evenodd">
        <g id="Rectangle" fill="url(#linearGradient-1)">
            <rect x="0" y="0" width="24" height="24"></rect>
        </g>
        <g id="Icon-Service/16/AWS-IoT-EduKit_16" transform="translate(4.000000, 4.000000)" fill="#FFFFFF">
            <path d="M13,12.50025 C12.448,12.50025 12,12.05125 12,11.50025 C12,10.94925 12.448,10.50025 13,10.50025 C13.552,10.50025 14,10.94925 14,11.50025 C14,12.05125 13.552,12.50025 13,12.50025 L13,12.50025 Z M8.5,14.00025 C8.5,14.55125 8.052,15.00025 7.5,15.00025 C6.948,15.00025 6.5,14.55125 6.5,14.00025 C6.5,13.44925 6.948,13.00025 7.5,13.00025 C8.052,13.00025 8.5,13.44925 8.5,14.00025 L8.5,14.00025 Z M3.012,6.13325 L3.916,4.77725 C3.921,4.77025 3.921,4.76225 3.926,4.75425 L7.332,5.97125 C7.386,5.99025 7.443,6.00025 7.5,6.00025 C7.557,6.00025 7.614,5.99025 7.668,5.97125 L11.074,4.75425 C11.079,4.76225 11.079,4.77025 11.084,4.77725 L11.988,6.13325 C11.825,7.04225 10.028,8.00025 7.5,8.00025 C4.972,8.00025 3.175,7.04225 3.012,6.13325 L3.012,6.13325 Z M7.5,1.03125 L13.014,3.00025 L7.5,4.96925 L1.986,3.00025 L7.5,1.03125 Z M2,12.50025 C1.448,12.50025 1,12.05125 1,11.50025 C1,10.94925 1.448,10.50025 2,10.50025 C2.552,10.50025 3,10.94925 3,11.50025 C3,12.05125 2.552,12.50025 2,12.50025 L2,12.50025 Z M13,9.50025 C12.071,9.50025 11.295,10.14025 11.071,11.00025 L10,11.00025 L10,8.66925 C11.787,8.17925 13,7.18525 13,6.00025 C13,5.90125 12.971,5.80525 12.916,5.72325 L12.04,4.40925 L14.668,3.47125 C14.867,3.40025 15,3.21125 15,3.00025 C15,2.78925 14.867,2.60025 14.668,2.52925 L7.668,0.02925 C7.561,-0.00975 7.439,-0.00975 7.332,0.02925 L0.332,2.52925 C0.133,2.60025 0,2.78925 0,3.00025 C0,3.21125 0.133,3.40025 0.332,3.47125 L2.96,4.40925 L2.084,5.72325 C2.029,5.80525 2,5.90125 2,6.00025 C2,7.18525 3.213,8.17925 5,8.66925 L5,11.00025 L3.929,11.00025 C3.705,10.14025 2.929,9.50025 2,9.50025 C0.897,9.50025 0,10.39725 0,11.50025 C0,12.60325 0.897,13.50025 2,13.50025 C2.929,13.50025 3.705,12.86025 3.929,12.00025 L5.5,12.00025 C5.776,12.00025 6,11.77625 6,11.50025 L6,8.87725 C6.322,8.92625 6.655,8.95725 7,8.97325 L7,12.07125 C6.14,12.29525 5.5,13.07125 5.5,14.00025 C5.5,15.10325 6.397,16.00025 7.5,16.00025 C8.603,16.00025 9.5,15.10325 9.5,14.00025 C9.5,13.07125 8.86,12.29525 8,12.07125 L8,8.97325 C8.345,8.95725 8.678,8.92625 9,8.87725 L9,11.50025 C9,11.77625 9.224,12.00025 9.5,12.00025 L11.071,12.00025 C11.295,12.86025 12.071,13.50025 13,13.50025 C14.103,13.50025 15,12.60325 15,11.50025 C15,10.39725 14.103,9.50025 13,9.50025 L13,9.50025 Z" id="Fill-7"></path>
        </g>
    </g>
</svg>