<?xml version="1.0" encoding="UTF-8"?>
<svg width="40px" height="40px" viewBox="0 0 40 40" version="1.1" xmlns="http://www.w3.org/2000/svg" xmlns:xlink="http://www.w3.org/1999/xlink">
    <title>Icon-Architecture/32/Arch_Amazon-WorkSpaces-Web_32</title>
    <defs>
        <linearGradient x1="0%" y1="100%" x2="100%" y2="0%" id="linearGradient-1">
            <stop stop-color="#055F4E" offset="0%"></stop>
            <stop stop-color="#56C0A7" offset="100%"></stop>
        </linearGradient>
    </defs>
    <g id="Icon-Architecture/32/Arch_Amazon-WorkSpaces-Web_32" stroke="none" stroke-width="1" fill="none" fill-rule="evenodd">
        <g id="Icon-Architecture-BG/32/End-User-Computing" fill="url(#linearGradient-1)">
            <rect id="Rectangle" x="0" y="0" width="40" height="40"></rect>
        </g>
        <g id="Icon-Service/32/Amazon-WorkSpaces-Web_32" transform="translate(6.000000, 7.000000)" fill="#FFFFFF">
            <path d="M14,24.645 L14,16.792 L21,12.855 L21,20.707 L14,24.645 Z M6,12.855 L13,16.792 L13,24.645 L6,20.707 L6,12.855 Z M13.5,8.074 L20.48,12 L13.5,15.926 L6.52,12 L13.5,8.074 Z M21.745,11.564 L13.745,7.064 C13.593,6.978 13.407,6.978 13.255,7.064 L5.255,11.564 C5.098,11.653 5,11.819 5,12 L5,21 C5,21.181 5.098,21.347 5.255,21.436 L13.255,25.936 C13.331,25.978 13.415,26 13.5,26 C13.585,26 13.669,25.978 13.745,25.936 L21.745,21.436 C21.902,21.347 22,21.181 22,21 L22,12 C22,11.819 21.902,11.653 21.745,11.564 L21.745,11.564 Z M7,2.5 C7,2.776 6.776,3 6.5,3 C6.224,3 6,2.776 6,2.5 C6,2.224 6.224,2 6.5,2 C6.776,2 7,2.224 7,2.5 L7,2.5 Z M5,2.5 C5,2.776 4.776,3 4.5,3 C4.224,3 4,2.776 4,2.5 C4,2.224 4.224,2 4.5,2 C4.776,2 5,2.224 5,2.5 L5,2.5 Z M3,2.5 C3,2.776 2.776,3 2.5,3 C2.224,3 2,2.776 2,2.5 C2,2.224 2.224,2 2.5,2 C2.776,2 3,2.224 3,2.5 L3,2.5 Z M24,17 L25,17 L25,7 L24,7 L24,17 Z M1,4 L1,1 L27,1 L27,4 L1,4 Z M27.5,0 L0.5,0 C0.367,0 0.24,0.053 0.146,0.146 C0.053,0.24 0,0.367 0,0.5 L0.001,19.5 C0.001,19.776 0.225,20 0.501,20 L3,20 L3,19 L1,19 L1,5 L27,5 L27,19 L24,19 L24,20 L27.5,20 C27.776,20 28,19.776 28,19.5 L28,0.5 C28,0.224 27.776,0 27.5,0 L27.5,0 Z" id="Fill-4"></path>
        </g>
    </g>
</svg>