<?xml version="1.0" encoding="UTF-8"?>
<svg width="48px" height="48px" viewBox="0 0 48 48" version="1.1" xmlns="http://www.w3.org/2000/svg" xmlns:xlink="http://www.w3.org/1999/xlink">
    <title>Icon-Architecture-Category/32/Compute_32</title>
    <defs>
        <linearGradient x1="0%" y1="100%" x2="100%" y2="0%" id="linearGradient-1">
            <stop stop-color="#C8511B" offset="0%"></stop>
            <stop stop-color="#FF9900" offset="100%"></stop>
        </linearGradient>
    </defs>
    <g id="Icon-Architecture-Category/32/Compute_32" stroke="none" stroke-width="1" fill="none" fill-rule="evenodd">
        <rect id="Rectangle" fill="url(#linearGradient-1)" x="4" y="4" width="40" height="40"></rect>
        <rect id="#879196-Border-Copy-6" stroke="#879196" stroke-width="2" x="1" y="1" width="46" height="46"></rect>
        <g id="Icon-Category/32/Compute_32" transform="translate(8.000000, 8.000000)" fill="#FFFFFF">
            <path d="M10,22 L22,22 L22,10 L10,10 L10,22 Z M22.5,9 L9.5,9 C9.224,9 9,9.224 9,9.5 L9,22.5 C9,22.776 9.224,23 9.5,23 L22.5,23 C22.776,23 23,22.776 23,22.5 L23,9.5 C23,9.224 22.776,9 22.5,9 L22.5,9 Z M26,11 L26,12 L26,14 L26,15 L26,17 L26,18 L26,20 L26,21 L26,23 L26,24 L26,26 L24,26 L23,26 L21,26 L20,26 L18,26 L17,26 L15,26 L14,26 L12,26 L11,26 L9,26 L8,26 L6,26 L6,24 L6,23 L6,21 L6,20 L6,18 L6,17 L6,15 L6,14 L6,12 L6,11 L6,9 L6,8 L6,6 L8,6 L9,6 L11,6 L12,6 L14,6 L15,6 L17,6 L18,6 L20,6 L21,6 L23,6 L24,6 L26,6 L26,8 L26,9 L26,11 Z M27,5.5 C27,5.224 26.776,5 26.5,5 L24,5 L24,2 L23,2 L23,5 L21,5 L21,2 L20,2 L20,5 L18,5 L18,2 L17,2 L17,5 L15,5 L15,2 L14,2 L14,5 L12,5 L12,2 L11,2 L11,5 L9,5 L9,2 L8,2 L8,5 L5.5,5 C5.224,5 5,5.224 5,5.5 L5,8 L2,8 L2,9 L5,9 L5,11 L2,11 L2,12 L5,12 L5,14 L2,14 L2,15 L5,15 L5,17 L2,17 L2,18 L5,18 L5,20 L2,20 L2,21 L5,21 L5,23 L2,23 L2,24 L5,24 L5,26.5 C5,26.776 5.224,27 5.5,27 L8,27 L8,30 L9,30 L9,27 L11,27 L11,30 L12,30 L12,27 L14,27 L14,30 L15,30 L15,27 L17,27 L17,30 L18,30 L18,27 L20,27 L20,30 L21,30 L21,27 L23,27 L23,30 L24,30 L24,27 L26.5,27 C26.776,27 27,26.776 27,26.5 L27,24 L30,24 L30,23 L27,23 L27,21 L30,21 L30,20 L27,20 L27,18 L30,18 L30,17 L27,17 L27,15 L30,15 L30,14 L27,14 L27,12 L30,12 L30,11 L27,11 L27,9 L30,9 L30,8 L27,8 L27,5.5 Z" id="Fill-5"></path>
        </g>
    </g>
</svg>