<?xml version="1.0" encoding="UTF-8"?>
<svg width="48px" height="48px" viewBox="0 0 48 48" version="1.1" xmlns="http://www.w3.org/2000/svg" xmlns:xlink="http://www.w3.org/1999/xlink">
    <title>Icon-Architecture-Category/32/Quantum-Technologies_32</title>
    <defs>
        <linearGradient x1="0%" y1="100%" x2="100%" y2="0%" id="linearGradient-1">
            <stop stop-color="#C8511B" offset="0%"></stop>
            <stop stop-color="#FF9900" offset="100%"></stop>
        </linearGradient>
    </defs>
    <g id="Icon-Architecture-Category/32/Quantum-Technologies_32" stroke="none" stroke-width="1" fill="none" fill-rule="evenodd">
        <rect id="Rectangle" fill="url(#linearGradient-1)" x="4" y="4" width="40" height="40"></rect>
        <rect id="#879196-Border-Copy-20" stroke="#879196" stroke-width="2" x="1" y="1" width="46" height="46"></rect>
        <g id="Icon-Category/32/Quantum-Technologies_32" transform="translate(8.000000, 8.000000)" fill="#FFFFFF">
            <path d="M27.759,22.5 C27.649,22.69 27.494,22.854 27.312,23.002 C26.96,22.694 26.504,22.5 26,22.5 C25.178,22.5 24.47,23 24.163,23.712 C23.371,23.682 22.502,23.561 21.572,23.348 C21.887,22.125 22.124,20.776 22.269,19.33 C23.451,18.48 24.504,17.598 25.407,16.711 C27.606,19.095 28.463,21.28 27.759,22.5 M26,25.5 C25.482,25.5 25.069,25.099 25.02,24.594 L25.012,24.444 C25.042,23.92 25.468,23.5 26,23.5 C26.552,23.5 27,23.949 27,24.5 C27,25.051 26.552,25.5 26,25.5 M16.5,29 C15.091,29 13.627,27.165 12.662,24.067 C13.883,23.728 15.171,23.267 16.501,22.667 C17.816,23.259 19.106,23.724 20.338,24.068 C19.373,27.166 17.909,29 16.5,29 M5.242,22.5 C5.077,22.214 4.996,21.878 4.996,21.5 C4.998,21.5 4.999,21.5 5,21.5 C6.103,21.5 7,20.603 7,19.5 C7,18.962 6.784,18.477 6.439,18.117 C6.778,17.651 7.163,17.183 7.596,16.714 C8.499,17.6 9.551,18.481 10.732,19.33 C10.877,20.78 11.114,22.132 11.431,23.358 C8.267,24.07 5.947,23.72 5.242,22.5 M5,18.5 C5.552,18.5 6,18.949 6,19.5 C6,20.051 5.552,20.5 5,20.5 C4.448,20.5 4,20.051 4,19.5 C4,18.949 4.448,18.5 5,18.5 M5.241,9.5 C5.947,8.279 8.267,7.929 11.431,8.642 C11.114,9.867 10.877,11.218 10.733,12.667 C9.564,13.506 8.504,14.388 7.589,15.284 C5.393,12.902 4.538,10.719 5.241,9.5 M16.5,3 C17.08,3 17.595,3.301 18.013,3.675 C17.697,4.029 17.5,4.49 17.5,5 C17.5,6.103 18.398,7 19.5,7 C19.669,7 19.831,6.973 19.988,6.933 C20.11,7.254 20.225,7.587 20.332,7.932 C19.113,8.271 17.825,8.741 16.5,9.339 C15.172,8.74 13.882,8.27 12.662,7.931 C13.628,4.834 15.091,3 16.5,3 M20.5,5 C20.5,5.551 20.052,6 19.5,6 C18.948,6 18.5,5.551 18.5,5 C18.5,4.449 18.948,4 19.5,4 C20.052,4 20.5,4.449 20.5,5 M22.371,13.977 C23.256,14.65 24.032,15.33 24.717,16 C24.032,16.67 23.256,17.35 22.371,18.023 C22.41,17.362 22.438,16.69 22.438,16 C22.438,15.316 22.411,14.643 22.371,13.977 M17.684,9.904 C18.707,9.475 19.683,9.142 20.604,8.885 C20.847,9.834 21.039,10.852 21.178,11.92 C20.628,11.558 20.064,11.201 19.469,10.858 C18.871,10.513 18.276,10.2 17.684,9.904 M11.813,11.928 C11.953,10.824 12.154,9.812 12.392,8.884 C13.315,9.142 14.29,9.474 15.317,9.904 C14.724,10.201 14.129,10.513 13.531,10.858 C12.938,11.201 12.368,11.561 11.813,11.928 M10.629,18.023 C9.743,17.349 8.967,16.67 8.283,15.999 C8.979,15.318 9.771,14.645 10.628,13.991 C10.589,14.647 10.563,15.314 10.563,16 C10.563,16.69 10.59,17.362 10.629,18.023 M15.317,22.096 C14.291,22.526 13.315,22.859 12.392,23.116 C12.154,22.188 11.953,21.176 11.813,20.073 C12.365,20.437 12.934,20.797 13.531,21.142 C14.125,21.485 14.721,21.798 15.317,22.096 M21.188,20.073 C21.048,21.17 20.85,22.176 20.613,23.099 C19.677,22.836 18.704,22.497 17.711,22.084 C18.294,21.792 18.88,21.482 19.469,21.142 C20.067,20.797 20.635,20.437 21.188,20.073 M18.969,20.276 C18.135,20.757 17.317,21.185 16.519,21.561 C15.688,21.173 14.854,20.75 14.031,20.276 C13.192,19.791 12.406,19.292 11.677,18.785 C11.603,17.899 11.563,16.97 11.563,16 C11.563,15.033 11.603,14.106 11.676,13.224 C12.422,12.705 13.206,12.2 14.031,11.724 C14.871,11.239 15.696,10.809 16.5,10.43 C17.304,10.809 18.129,11.239 18.969,11.724 C19.806,12.208 20.589,12.706 21.317,13.21 C21.395,14.118 21.438,15.05 21.438,16 C21.438,16.97 21.398,17.899 21.323,18.785 C20.594,19.292 19.809,19.791 18.969,20.276 M27.759,9.5 C28.463,10.72 27.606,12.905 25.407,15.289 C24.503,14.402 23.45,13.52 22.268,12.669 C22.124,11.243 21.892,9.885 21.572,8.641 C24.735,7.93 27.053,8.28 27.759,9.5 M28.624,9 C27.627,7.271 24.837,6.882 21.302,7.686 C21.17,7.256 21.03,6.84 20.875,6.445 C21.258,6.081 21.5,5.569 21.5,5 C21.5,3.897 20.603,3 19.5,3 C19.275,3 19.062,3.046 18.86,3.115 C18.127,2.394 17.324,2 16.5,2 C14.503,2 12.772,4.222 11.7,7.687 C8.164,6.881 5.373,7.271 4.376,9 C3.377,10.729 4.436,13.34 6.901,16 C6.405,16.533 5.964,17.066 5.582,17.597 C5.397,17.54 5.204,17.5 5,17.5 C3.898,17.5 3,18.397 3,19.5 C3,20.243 3.412,20.885 4.014,21.229 C3.967,21.891 4.081,22.488 4.376,23 C5.046,24.161 6.522,24.722 8.488,24.722 C9.45,24.722 10.538,24.575 11.699,24.311 C12.771,27.777 14.503,30 16.5,30 C18.497,30 20.23,27.777 21.3,24.312 C22.265,24.534 23.177,24.666 24.021,24.705 C24.125,25.71 24.968,26.5 26,26.5 C27.103,26.5 28,25.603 28,24.5 C28,24.264 27.951,24.041 27.876,23.831 C28.184,23.595 28.439,23.321 28.624,23 C29.623,21.271 28.565,18.66 26.1,16 C28.565,13.34 29.623,10.729 28.624,9" id="Quantum-Technologies_Category-Icon_32_Squid"></path>
        </g>
    </g>
</svg>