<?xml version="1.0" encoding="UTF-8"?>
<svg width="48px" height="48px" viewBox="0 0 48 48" version="1.1" xmlns="http://www.w3.org/2000/svg" xmlns:xlink="http://www.w3.org/1999/xlink">
    <title>Icon-Architecture-Category/32/Storage_32</title>
    <defs>
        <linearGradient x1="0%" y1="100%" x2="100%" y2="0%" id="linearGradient-1">
            <stop stop-color="#1B660F" offset="0%"></stop>
            <stop stop-color="#6CAE3E" offset="100%"></stop>
        </linearGradient>
    </defs>
    <g id="Icon-Architecture-Category/32/Storage_32" stroke="none" stroke-width="1" fill="none" fill-rule="evenodd">
        <rect id="Rectangle" fill="url(#linearGradient-1)" x="4" y="4" width="40" height="40"></rect>
        <rect id="#879196-Border-Copy-24" stroke="#879196" stroke-width="2" x="1" y="1" width="46" height="46"></rect>
        <g id="Icon-Category/32/Storage_32" transform="translate(8.000000, 8.000000)" fill="#FFFFFF">
            <path d="M20,22.5 C20,22.776 19.775,23 19.5,23 L12.5,23 C12.225,23 12,22.776 12,22.5 L12,21.5 C12,21.224 12.225,21 12.5,21 L19.5,21 C19.775,21 20,21.224 20,21.5 L20,22.5 Z M19.5,20 L12.5,20 C11.673,20 11,20.673 11,21.5 L11,22.5 C11,23.327 11.673,24 12.5,24 L19.5,24 C20.327,24 21,23.327 21,22.5 L21,21.5 C21,20.673 20.327,20 19.5,20 L19.5,20 Z M11,12 L21,12 L21,11 L11,11 L11,12 Z M11,6 L14,6 L14,5 L11,5 L11,6 Z M11,9 L14,9 L14,8 L11,8 L11,9 Z M27,28.088 C27,28.591 26.503,29 26,29 L5.912,29 C5.409,29 5,28.591 5,28.088 L5,18 L27,18 L27,28.088 Z M9,3 L17,3 L17,8.5 C17,8.776 17.224,9 17.5,9 L23,9 L23,17 L9,17 L9,3 Z M18,3.707 L22.293,8 L18,8 L18,3.707 Z M27.412,17 L24,17 L24,8.5 L23.98,8.5 C23.98,8.37 23.949,8.242 23.854,8.146 L17.854,2.146 C17.758,2.051 17.63,2.02 17.5,2.02 L17.5,2 L8.5,2 C8.224,2 8,2.224 8,2.5 L8,17 L4.5,17 C4.224,17 4,17.224 4,17.5 L4,28.088 C4,29.143 4.857,30 5.912,30 L26,30 C27.055,30 27.912,29.143 27.912,28.088 L27.912,17.5 C27.912,17.224 27.688,17 27.412,17 L27.412,17 Z" id="Storage_Category-Icon_32_Squid"></path>
        </g>
    </g>
</svg>