<?xml version="1.0" encoding="UTF-8"?>
<svg width="48px" height="48px" viewBox="0 0 48 48" version="1.1" xmlns="http://www.w3.org/2000/svg" xmlns:xlink="http://www.w3.org/1999/xlink">
    <title>Icon-Architecture-Category/32/Internet-of-Things_32</title>
    <defs>
        <linearGradient x1="0%" y1="100%" x2="100%" y2="0%" id="linearGradient-1">
            <stop stop-color="#1B660F" offset="0%"></stop>
            <stop stop-color="#6CAE3E" offset="100%"></stop>
        </linearGradient>
    </defs>
    <g id="Icon-Architecture-Category/32/Internet-of-Things_32" stroke="none" stroke-width="1" fill="none" fill-rule="evenodd">
        <rect id="Rectangle" fill="url(#linearGradient-1)" x="4" y="4" width="40" height="40"></rect>
        <rect id="#879196-Border-Copy-13" stroke="#879196" stroke-width="2" x="1" y="1" width="46" height="46"></rect>
        <g id="Icon-Category/32/IoT_32" transform="translate(8.000000, 8.000000)" fill="#FFFFFF">
            <path d="M25.5,19 C23.57,19 22,17.43 22,15.5 C22,13.57 23.57,12 25.5,12 C25.833,12 26.148,12.062 26.454,12.149 C26.455,12.152 26.457,12.156 26.458,12.159 L26.472,12.154 C27.927,12.579 29,13.91 29,15.5 C29,17.43 27.43,19 25.5,19 M20,25.402 L20,15.958 L21.046,15.958 C21.279,18.222 23.176,20 25.5,20 C25.675,20 25.841,19.968 26.011,19.948 C24.797,22.552 22.623,24.484 20,25.402 M17,25.981 L17,10.949 C19.244,10.697 21,8.81 21,6.5 C21,6.33 20.969,6.168 20.95,6.003 C23.187,7.05 24.975,8.826 26.014,11.052 C25.843,11.032 25.676,11 25.5,11 C23.204,11 21.326,12.776 21.055,15 L19.5,15 C19.224,15 19,15.182 19,15.458 L19,25.701 C18.353,25.857 17.684,25.95 17,25.981 M14,25.701 L14,15.458 C14,15.182 13.776,15 13.5,15 L11.945,15 C11.674,12.776 9.796,11 7.5,11 C7.324,11 7.158,11.032 6.988,11.052 C8.03,8.833 9.833,7.03 12.052,5.988 C12.032,6.158 12,6.325 12,6.5 C12,8.81 13.756,10.697 16,10.949 L16,25.981 C15.316,25.95 14.647,25.857 14,25.701 M6.989,19.948 C7.159,19.968 7.325,20 7.5,20 C9.824,20 11.721,18.222 11.954,15.958 L13,15.958 L13,25.402 C10.377,24.484 8.203,22.552 6.989,19.948 M4,15.5 C4,13.91 5.073,12.579 6.528,12.154 L6.542,12.159 C6.543,12.156 6.545,12.152 6.546,12.149 C6.852,12.062 7.167,12 7.5,12 C9.43,12 11,13.57 11,15.5 C11,17.43 9.43,19 7.5,19 C5.57,19 4,17.43 4,15.5 M16.5,3 C18.43,3 20,4.57 20,6.5 C20,8.43 18.43,10 16.5,10 C14.57,10 13,8.43 13,6.5 C13,6.167 13.062,5.852 13.148,5.547 C13.152,5.545 13.155,5.544 13.159,5.542 L13.154,5.528 C13.579,4.073 14.91,3 16.5,3 M27.206,11.341 C26.042,8.34 23.699,5.962 20.682,4.784 L20.668,4.82 C20,3.17 18.387,2 16.5,2 C14.622,2 13.014,3.158 12.34,4.796 C9.35,5.961 6.961,8.35 5.797,11.34 C4.158,12.013 3,13.622 3,15.5 C3,17.387 4.17,19 5.82,19.667 L5.784,19.682 C7.078,22.997 9.747,25.436 13,26.462 L13,30 L14,30 L14,26.727 C14.649,26.869 15.318,26.952 16,26.981 L16,30 L17,30 L17,26.981 C17.682,26.952 18.351,26.869 19,26.727 L19,30 L20,30 L20,26.462 C23.253,25.436 25.922,22.997 27.216,19.682 L27.18,19.667 C28.83,19 30,17.387 30,15.5 C30,13.623 28.843,12.015 27.206,11.341" id="IoT_Category-Icon_32_Squid--"></path>
        </g>
    </g>
</svg>