<?xml version="1.0" encoding="UTF-8"?>
<svg width="48px" height="48px" viewBox="0 0 48 48" version="1.1" xmlns="http://www.w3.org/2000/svg" xmlns:xlink="http://www.w3.org/1999/xlink">
    <title>Icon-Architecture-Category/32/Game-Tech_32</title>
    <defs>
        <linearGradient x1="0%" y1="100%" x2="100%" y2="0%" id="linearGradient-1">
            <stop stop-color="#4D27A8" offset="0%"></stop>
            <stop stop-color="#A166FF" offset="100%"></stop>
        </linearGradient>
    </defs>
    <g id="Icon-Architecture-Category/32/Game-Tech_32" stroke="none" stroke-width="1" fill="none" fill-rule="evenodd">
        <rect id="Rectangle" fill="url(#linearGradient-1)" x="4" y="4" width="40" height="40"></rect>
        <rect id="#879196-Border-Copy-12" stroke="#879196" stroke-width="2" x="1" y="1" width="46" height="46"></rect>
        <g id="Icon-Category/32/Game-Tech_32" transform="translate(8.000000, 8.000000)" fill="#FFFFFF">
            <path d="M7.014,11.999 L5.013,11.999 L5.013,10.999 L7.014,10.999 L7.014,8.998 L8.014,8.998 L8.014,10.999 L10.015,10.999 L10.015,11.999 L8.014,11.999 L8.014,14 L7.014,14 L7.014,11.999 Z M25.515,13.501 C26.067,13.501 26.515,13.053 26.515,12.501 C26.515,11.95 26.067,11.501 25.515,11.501 C24.963,11.501 24.515,11.95 24.515,12.501 C24.515,13.053 24.963,13.501 25.515,13.501 L25.515,13.501 Z M23.513,11.5 C24.065,11.5 24.513,11.051 24.513,10.5 C24.513,9.949 24.065,9.5 23.513,9.5 C22.961,9.5 22.513,9.949 22.513,10.5 C22.513,11.051 22.961,11.5 23.513,11.5 L23.513,11.5 Z M29.014,21.346 C29.01,21.621 28.906,24.034 26.557,24.034 C24.668,24.034 23.154,19.966 22.047,16.995 C21.955,16.746 21.863,16.501 21.773,16.262 C22.581,16.729 23.516,17 24.514,17 C26.374,17 28.018,16.07 29.014,14.653 L29.014,21.346 Z M11.825,15 C11.867,14.907 11.909,14.806 11.95,14.72 C12.608,13.814 13,12.703 13,11.5 C13,10.172 12.526,8.952 11.739,8 L20.275,8 C19.488,8.952 19.014,10.172 19.014,11.5 C19.014,12.703 19.407,13.814 20.064,14.72 C20.105,14.806 20.147,14.907 20.189,15 L11.825,15 Z M5.457,24.034 C3.109,24.034 3.004,21.621 3,21.352 L3,14.653 C3.996,16.07 5.641,17 7.5,17 C8.499,17 9.433,16.729 10.241,16.262 C10.151,16.501 10.06,16.746 9.967,16.995 C8.861,19.966 7.346,24.034 5.457,24.034 L5.457,24.034 Z M7.5,7 C9.982,7 12,9.019 12,11.5 C12,13.982 9.982,16 7.5,16 C5.019,16 3,13.982 3,11.5 C3,9.019 5.019,7 7.5,7 L7.5,7 Z M29.014,11.5 C29.014,13.982 26.995,16 24.514,16 C22.033,16 20.014,13.982 20.014,11.5 C20.014,9.019 22.033,7 24.514,7 C26.995,7 29.014,9.019 29.014,11.5 L29.014,11.5 Z M30.014,11.5 C30.014,8.468 27.546,6 24.514,6 C23.342,6 22.256,6.372 21.363,7 L10.652,7 C9.758,6.372 8.673,6 7.5,6 C4.468,6 2,8.468 2,11.5 C2,11.56 2.007,11.618 2.009,11.677 L2,11.677 L2,21.356 C2.012,22.628 2.749,25.034 5.457,25.034 C8.04,25.034 9.628,20.77 10.904,17.344 C11.078,16.876 11.247,16.423 11.412,16 L20.603,16 C20.767,16.423 20.936,16.876 21.111,17.344 C22.386,20.77 23.974,25.034 26.557,25.034 C29.265,25.034 30.002,22.628 30.014,21.352 L30.014,11.677 L30.005,11.677 C30.007,11.618 30.014,11.56 30.014,11.5 L30.014,11.5 Z" id="Fill-5"></path>
        </g>
    </g>
</svg>