<?xml version="1.0" encoding="UTF-8"?>
<svg width="48px" height="48px" viewBox="0 0 48 48" version="1.1" xmlns="http://www.w3.org/2000/svg" xmlns:xlink="http://www.w3.org/1999/xlink">
    <title>Icon-Architecture-Category/32/Machine-Learning_32</title>
    <defs>
        <linearGradient x1="0%" y1="100%" x2="100%" y2="0%" id="linearGradient-1">
            <stop stop-color="#055F4E" offset="0%"></stop>
            <stop stop-color="#56C0A7" offset="100%"></stop>
        </linearGradient>
    </defs>
    <g id="Icon-Architecture-Category/32/Machine-Learning_32" stroke="none" stroke-width="1" fill="none" fill-rule="evenodd">
        <rect id="Rectangle" fill="url(#linearGradient-1)" x="4" y="4" width="40" height="40"></rect>
        <rect id="#879196-Border-Copy-14" stroke="#879196" stroke-width="2" x="1" y="1" width="46" height="46"></rect>
        <g id="Icon-Category/32/Machine-Learning_32" transform="translate(8.000000, 8.000000)" fill="#FFFFFF">
            <path d="M21.012,15.6968705 C21.012,13.5468705 19.651,11.6228705 17.623,10.9088705 L17.955,9.96587049 C20.382,10.8198705 22.012,13.1228705 22.012,15.6968705 C22.012,18.2668705 20.385,20.5688705 17.963,21.4248705 L17.629,20.4818705 C19.653,19.7668705 21.012,17.8428705 21.012,15.6968705 L21.012,15.6968705 Z M29.406,18.4458705 L27.439,23.2248705 C27.387,23.3518705 27.284,23.4518705 27.156,23.5008705 C27.028,23.5498705 26.884,23.5438705 26.76,23.4848705 L25.192,22.7318705 C24.567,23.5548705 23.836,24.2878705 23.014,24.9168705 L23.775,26.4848705 C23.834,26.6078705 23.841,26.7508705 23.792,26.8798705 C23.743,27.0088705 23.644,27.1118705 23.517,27.1638705 L18.747,29.1528705 C18.686,29.1778705 18.62,29.1908705 18.555,29.1908705 C18.486,29.1908705 18.416,29.1758705 18.352,29.1478705 C18.226,29.0918705 18.129,28.9868705 18.083,28.8568705 L17.368,26.8218705 L18.312,26.4898705 L18.851,28.0258705 L22.644,26.4448705 L21.932,24.9798705 C21.825,24.7598705 21.894,24.4948705 22.093,24.3538705 C23.079,23.6548705 23.931,22.7998705 24.624,21.8138705 C24.766,21.6138705 25.031,21.5448705 25.25,21.6508705 L26.716,22.3548705 L28.28,18.5548705 L26.744,18.0238705 C26.513,17.9438705 26.373,17.7078705 26.414,17.4668705 C26.616,16.2768705 26.615,15.0698705 26.407,13.8798705 C26.365,13.6388705 26.502,13.4028705 26.733,13.3218705 L28.267,12.7828705 L26.686,8.99087049 L25.219,9.70287049 C25,9.80987049 24.734,9.74287049 24.593,9.54287049 C23.892,8.55687049 23.037,7.70587049 22.053,7.01487049 C21.853,6.87387049 21.783,6.60987049 21.889,6.38887049 L22.596,4.91887049 L18.795,3.35487049 L18.261,4.89687049 L17.316,4.56987049 L18.024,2.52787049 C18.069,2.39787049 18.165,2.29187049 18.291,2.23487049 C18.415,2.17887049 18.559,2.17687049 18.687,2.22887049 L23.466,4.19587049 C23.593,4.24787049 23.694,4.34987049 23.742,4.47887049 C23.791,4.60687049 23.786,4.74987049 23.727,4.87387049 L22.971,6.44687049 C23.793,7.07087049 24.526,7.79987049 25.156,8.62187049 L26.725,7.85987049 C26.85,7.79987049 26.993,7.79387049 27.12,7.84187049 C27.249,7.89087049 27.352,7.98987049 27.406,8.11687049 L29.394,12.8868705 C29.447,13.0138705 29.445,13.1568705 29.389,13.2828705 C29.332,13.4088705 29.228,13.5058705 29.098,13.5508705 L27.456,14.1278705 C27.598,15.1528705 27.6,16.1878705 27.464,17.2148705 L29.107,17.7828705 C29.238,17.8278705 29.343,17.9248705 29.4,18.0498705 C29.456,18.1758705 29.458,18.3188705 29.406,18.4458705 L29.406,18.4458705 Z M12.749,20.7498705 L12.75,17.8918705 C12.75,17.7088705 12.65,17.5398705 12.49,17.4518705 L10,16.0988705 L10,13.5068705 L12.758,11.8498705 C12.908,11.7598705 13,11.5968705 13,11.4218705 L13,6.70987049 L12,6.70987049 L12,11.1388705 L9.488,12.6488705 L6,10.9708705 L6,7.55387049 L9,5.37987049 L9,9.70987049 L10,9.70987049 L10,4.70987049 L9.925,4.70987049 L12.15,3.09687049 L15,4.70987049 L14.999,15.4218705 L12.572,14.0128705 L12.07,14.8788705 L14.999,16.5778705 L14.999,19.4538705 L12.749,20.7498705 Z M14.999,26.9448705 L12.116,28.6318705 L9.664,27.2238705 L12.728,25.3868705 L12.214,24.5298705 L8.67,26.6538705 L6,25.1208705 L6,21.9098705 L9.011,20.1758705 L8.511,19.3098705 L5.617,20.9768705 L3.001,19.2188705 L3,16.6768705 L5.88,15.0178705 L5.38,14.1518705 L3,15.5228705 L3.001,13.5068705 L5.653,11.9128705 L9,13.5238705 L9,15.9008705 L5.277,17.7618705 L5.724,18.6568705 L9.312,16.8628705 L11.75,18.1888705 L11.749,21.3258705 L8.385,23.2638705 L8.885,24.1308705 L14.999,20.6078705 L14.999,26.9448705 Z M12.373,2.06887049 C12.201,1.96787049 11.988,1.97887049 11.826,2.09587049 L5.207,6.89487049 C5.077,6.98887049 5,7.13887049 5,7.29987049 L5,11.1388705 L2.243,12.7958705 C2.093,12.8858705 2.001,13.0488705 2.001,13.2238705 L2.001,13.5058705 C2,13.5158705 2,13.5258705 2,13.5358705 L2,19.1738705 C2,19.1838705 2,19.1938705 2.001,19.2038705 L2.001,19.4858705 C2.001,19.6528705 2.084,19.8078705 2.223,19.9008705 L5,21.7668705 L5,25.4108705 C5,25.5898705 5.096,25.7558705 5.251,25.8438705 L11.87,29.6428705 C11.948,29.6878705 12.033,29.7098705 12.119,29.7098705 C12.206,29.7098705 12.294,29.6868705 12.372,29.6408705 L15.752,27.6628705 C15.906,27.5728705 15.999,27.4088705 15.999,27.2308705 L16,4.47887049 C16,4.30087049 15.907,4.13687049 15.753,4.04787049 L12.373,2.06887049 Z" id="Machine-Learning_Category-Icon_32_Squid"></path>
        </g>
    </g>
</svg>