<?xml version="1.0" encoding="UTF-8"?>
<svg width="48px" height="48px" viewBox="0 0 48 48" version="1.1" xmlns="http://www.w3.org/2000/svg" xmlns:xlink="http://www.w3.org/1999/xlink">
    <title>Icon-Architecture-Category/32/Developer-Tools_32</title>
    <defs>
        <linearGradient x1="0%" y1="100%" x2="100%" y2="0%" id="linearGradient-1">
            <stop stop-color="#2E27AD" offset="0%"></stop>
            <stop stop-color="#527FFF" offset="100%"></stop>
        </linearGradient>
    </defs>
    <g id="Icon-Architecture-Category/32/Developer-Tools_32" stroke="none" stroke-width="1" fill="none" fill-rule="evenodd">
        <rect id="Rectangle" fill="url(#linearGradient-1)" x="4" y="4" width="40" height="40"></rect>
        <rect id="#879196-Border-Copy-10" stroke="#879196" stroke-width="2" x="1" y="1" width="46" height="46"></rect>
        <g id="Icon-Category/32/Dev-Tools_32" transform="translate(8.000000, 8.000000)" fill="#FFFFFF">
            <path d="M27.9481889,24.7103909 L19.5441889,16.3063909 C19.3241889,16.0853909 19.0311889,15.9643909 18.7201889,15.9643909 C18.4091889,15.9643909 18.1161889,16.0853909 17.8961889,16.3063909 L16.3051889,17.8973909 C16.0861889,18.1173909 15.9641889,18.4103909 15.9641889,18.7213909 C15.9641889,19.0323909 16.0861889,19.3243909 16.3051889,19.5443909 L24.7101889,27.9493909 C25.5601889,28.7993909 26.9441889,28.8013909 27.7971889,27.9493909 L27.9481889,27.7973909 C28.7991889,26.9463909 28.7991889,25.5613909 27.9481889,24.7103909 L27.9481889,24.7103909 Z M9.3971889,10.7643909 L15.7231889,17.0643909 L17.0641889,15.7243909 L11.1101889,9.7463909 C10.8831889,9.5173909 10.7111889,9.2353909 10.6131889,8.9303909 L9.7451889,6.2243909 C9.6561889,5.9453909 9.4521889,5.7163909 9.1861889,5.5963909 L6.2161889,4.2503909 C5.8241889,4.0733909 5.3581889,4.1573909 5.0531889,4.4603909 L4.4601889,5.0543909 C4.1561889,5.3573909 4.0721889,5.8253909 4.2491889,6.2163909 L5.5951889,9.1863909 C5.7171889,9.4533909 5.9461889,9.6563909 6.2231889,9.7463909 L9.3971889,10.7643909 Z M28.6551889,24.0033909 C29.8961889,25.2443909 29.8961889,27.2633909 28.6551889,28.5043909 L28.5051889,28.6553909 C27.9021889,29.2573909 27.1031889,29.5883909 26.2531889,29.5883909 C25.4031889,29.5883909 24.6041889,29.2573909 24.0031889,28.6563909 L15.5981889,20.2523909 C15.1891889,19.8423909 14.9641889,19.2993909 14.9641889,18.7213909 C14.9641889,18.4293909 15.0211889,18.1473909 15.1311889,17.8863909 L8.8621889,11.6433909 L5.9191889,10.6983909 C5.3731889,10.5233909 4.9231889,10.1233909 4.6851889,9.6003909 L3.3391889,6.6293909 C2.9901889,5.8613909 3.1561889,4.9443909 3.7531889,4.3473909 L4.3461889,3.7533909 C4.9431889,3.1573909 5.8561889,2.9883909 6.6291889,3.3393909 L9.5981889,4.6853909 C10.1211889,4.9223909 10.5211889,5.3713909 10.6971889,5.9183909 L11.5661889,8.6253909 C11.6151889,8.7803909 11.7031889,8.9243909 11.8191889,9.0413909 L17.8951889,15.1403909 C18.6801889,14.8323909 19.6371889,14.9843909 20.2511889,15.5993909 L28.6551889,24.0033909 Z M29.1381889,5.6043909 C28.9791889,5.5773909 28.8151889,5.6283909 28.7001889,5.7433909 L25.6591889,8.7843909 C25.2731889,9.1693909 24.6011889,9.1703909 24.2141889,8.7843909 C23.8161889,8.3853909 23.8161889,7.7373909 24.2141889,7.3383909 L27.2551889,4.2983909 C27.3701889,4.1833909 27.4221889,4.0203909 27.3941889,3.8603909 C27.3661889,3.7003909 27.2631889,3.5633909 27.1171889,3.4933909 C25.1811889,2.5703909 22.8671889,2.9663909 21.3551889,4.4803909 C20.3001889,5.5353909 19.7731889,6.9723909 19.8901889,8.4543909 L16.3441889,12.0013909 L17.0521889,12.7083909 L20.7651889,8.9933909 C20.8751889,8.8843909 20.9271889,8.7303909 20.9081889,8.5773909 C20.7481889,7.3163909 21.1691889,6.0813909 22.0621889,5.1873909 C23.1001889,4.1483909 24.6101889,3.7643909 25.9981889,4.1413909 L23.5071889,6.6323909 C22.7191889,7.4203909 22.7191889,8.7033909 23.5071889,9.4913909 C24.2701889,10.2543909 25.6021889,10.2533909 26.3661889,9.4913909 L28.8571889,7.0003909 C29.2321889,8.3873909 28.8491889,9.8973909 27.8111889,10.9363909 C26.9171889,11.8303909 25.6761889,12.2473909 24.4221889,12.0893909 C24.2621889,12.0733909 24.1141889,12.1233909 24.0051889,12.2323909 L21.0451889,15.1913909 L21.7521889,15.8983909 L24.5441889,13.1073909 C26.0241889,13.2243909 27.4641889,12.6983909 28.5181889,11.6433909 C30.0311889,10.1303909 30.4271889,7.8153909 29.5051889,5.8813909 C29.4351889,5.7353909 29.2991889,5.6313909 29.1381889,5.6043909 L29.1381889,5.6043909 Z M16.0281889,21.6713909 L13.1071889,24.5463909 C13.2231889,26.0283909 12.6971889,27.4643909 11.6421889,28.5193909 C10.6751889,29.4873909 9.3771889,29.9983909 8.0611889,29.9993909 C7.3221889,29.9993909 6.5771889,29.8373909 5.8811889,29.5053909 C5.7341889,29.4353909 5.6321889,29.2983909 5.6031889,29.1383909 C5.5761889,28.9793909 5.6281889,28.8153909 5.7431889,28.7003909 L8.7841889,25.6603909 C9.1811889,25.2613909 9.1811889,24.6133909 8.7841889,24.2143909 C8.3971889,23.8283909 7.7251889,23.8303909 7.3391889,24.2143909 L4.2981889,27.2553909 C4.1821889,27.3703909 4.0191889,27.4223909 3.8591889,27.3943909 C3.6991889,27.3673909 3.5621889,27.2633909 3.4931889,27.1173909 C2.5701889,25.1833909 2.9671889,22.8683909 4.4791889,21.3553909 C5.5331889,20.3013909 6.9681889,19.7773909 8.4511889,19.8913909 L11.6421889,16.6483909 L12.3551889,17.3503909 L8.9961889,20.7633909 C8.8861889,20.8743909 8.7351889,20.9283909 8.5761889,20.9093909 C7.3171889,20.7463909 6.0801889,21.1683909 5.1861889,22.0623909 C4.1481889,23.1013909 3.7651889,24.6113909 4.1401889,25.9983909 L6.6321889,23.5073909 C7.3941889,22.7443909 8.7261889,22.7423909 9.4911889,23.5073909 C10.2781889,24.2953909 10.2781889,25.5783909 9.4911889,26.3663909 L7.0001889,28.8573909 C8.3881889,29.2343909 9.8971889,28.8513909 10.9351889,27.8123909 C11.8291889,26.9183909 12.2501889,25.6823909 12.0901889,24.4213909 C12.0701889,24.2673909 12.1241889,24.1113909 12.2351889,24.0023909 L15.3271889,20.9593909 L16.0281889,21.6713909 Z" id="Dev-Tools_Category-Icon_32_Squid--"></path>
        </g>
    </g>
</svg>