<?xml version="1.0" encoding="UTF-8"?>
<svg width="48px" height="48px" viewBox="0 0 48 48" version="1.1" xmlns="http://www.w3.org/2000/svg" xmlns:xlink="http://www.w3.org/1999/xlink">
    <title>Icon-Architecture-Category/32/End-User-Computing_32</title>
    <defs>
        <linearGradient x1="0%" y1="100%" x2="100%" y2="0%" id="linearGradient-1">
            <stop stop-color="#055F4E" offset="0%"></stop>
            <stop stop-color="#56C0A7" offset="100%"></stop>
        </linearGradient>
    </defs>
    <g id="Icon-Architecture-Category/32/End-User-Computing_32" stroke="none" stroke-width="1" fill="none" fill-rule="evenodd">
        <rect id="Rectangle" fill="url(#linearGradient-1)" x="4" y="4" width="40" height="40"></rect>
        <rect id="#879196-Border-Copy-11" stroke="#879196" stroke-width="2" x="1" y="1" width="46" height="46"></rect>
        <g id="Icon-Category/32/End-User-Computing_32" transform="translate(8.000000, 8.000000)" fill="#FFFFFF">
            <path d="M21.0001593,27 L26.0001593,27 L26.0001593,26 L21.0001593,26 L21.0001593,27 Z M5.00015928,3.992 C5.00015928,3.445 5.47615928,3 6.06015928,3 L25.9401593,3 C26.5241593,3 27.0001593,3.445 27.0001593,3.992 L27.0001593,6 L28.0001593,6 L28.0001593,3.992 C28.0001593,2.894 27.0761593,2 25.9401593,2 L6.06015928,2 C4.92415928,2 4.00015928,2.894 4.00015928,3.992 L4.00015928,19 L2.50015928,19 C2.31515928,19 2.14615928,19.102 2.06015928,19.264 C1.97215928,19.427 1.98115928,19.624 2.08415928,19.777 L4.08415928,22.777 C4.17715928,22.917 4.33315928,23 4.50015928,23 L16.0001593,23 L16.0001593,22 L4.76815928,22 L3.43515928,20 L4.00015928,20 L5.00015928,20 L16.0001593,20 L16.0001593,19 L5.00015928,19 L5.00015928,3.992 Z M29.0001593,23 L29.0001593,8.5 C29.0001593,8.224 28.7751593,8 28.5001593,8 L18.5001593,8 C18.2251593,8 18.0001593,8.224 18.0001593,8.5 L18.0001593,23 L29.0001593,23 Z M29.0001593,24 L18.0001593,24 L18.0001593,28.5 C18.0001593,28.776 18.2251593,29 18.5001593,29 L28.5001593,29 C28.7751593,29 29.0001593,28.776 29.0001593,28.5 L29.0001593,24 Z M30.0001593,8.5 L30.0001593,23 L30.0001593,24 L30.0001593,28.5 C30.0001593,29.327 29.3271593,30 28.5001593,30 L18.5001593,30 C17.6731593,30 17.0001593,29.327 17.0001593,28.5 L17.0001593,24 L17.0001593,23 L17.0001593,8.5 C17.0001593,7.673 17.6731593,7 18.5001593,7 L28.5001593,7 C29.3271593,7 30.0001593,7.673 30.0001593,8.5 L30.0001593,8.5 Z M22.7051593,12.97 C22.6001593,12.392 22.3271593,11.523 21.6711593,10.899 C21.1881593,10.442 20.3131593,9.957 18.9011593,10.242 L19.0991593,11.223 C19.8361593,11.073 20.4381593,11.178 20.8761593,11.532 C21.5941593,12.111 21.7651593,13.238 21.7731593,13.427 C21.7501593,13.582 21.8021593,13.739 21.9111593,13.851 C22.0211593,13.962 22.1791593,14.019 22.3331593,13.996 C22.3501593,13.993 24.0371593,13.784 24.9371593,14.574 C25.3151593,14.907 25.5001593,15.373 25.5001593,16 C25.5001593,17.077 24.1811593,18 23.1011593,18 L19.0001593,18 L19.0001593,19 L23.1011593,19 C24.6731593,19 26.5001593,17.689 26.5001593,16 C26.5001593,15.08 26.1951593,14.346 25.5931593,13.819 C24.7091593,13.046 23.4221593,12.955 22.7051593,12.97 L22.7051593,12.97 Z M12.2791593,5.863 C11.6881593,6.443 11.3491593,7.298 11.3491593,8.209 C11.3491593,8.501 11.4051593,8.797 11.5211593,9.114 C11.5851593,9.289 11.5451593,9.486 11.4191593,9.624 C11.2931593,9.762 11.0981593,9.817 10.9201593,9.768 C10.6481593,9.694 10.4221593,9.66 10.2071593,9.66 C8.71515928,9.66 7.50015928,10.858 7.50015928,12.33 C7.50015928,13.802 8.71515928,15 10.2071593,15 L16.0001593,15 L16.0001593,16 L10.2071593,16 C8.16315928,16 6.50015928,14.354 6.50015928,12.33 C6.50015928,10.25 8.27415928,8.539 10.3801593,8.665 C10.3591593,8.513 10.3491593,8.361 10.3491593,8.209 C10.3491593,7.032 10.7971593,5.916 11.5791593,5.149 C12.3351593,4.405 13.3591593,4.025 14.5581593,4.048 C15.6551593,4.068 17.1451593,4.377 18.0041593,5.732 L17.1601593,6.268 C16.5381593,5.288 15.3921593,5.063 14.5391593,5.048 C13.6141593,5.02 12.8491593,5.304 12.2791593,5.863 L12.2791593,5.863 Z" id="End-User-Computing_Category-Icon_32_Squid--"></path>
        </g>
    </g>
</svg>