<?xml version="1.0" encoding="UTF-8"?>
<svg width="48px" height="48px" viewBox="0 0 48 48" version="1.1" xmlns="http://www.w3.org/2000/svg" xmlns:xlink="http://www.w3.org/1999/xlink">
    <title>Icon-Architecture-Category/32/Business-Applications_32</title>
    <defs>
        <linearGradient x1="0%" y1="100%" x2="100%" y2="0%" id="linearGradient-1">
            <stop stop-color="#BD0816" offset="0%"></stop>
            <stop stop-color="#FF5252" offset="100%"></stop>
        </linearGradient>
    </defs>
    <g id="Icon-Architecture-Category/32/Business-Applications_32" stroke="none" stroke-width="1" fill="none" fill-rule="evenodd">
        <rect id="Rectangle" fill="url(#linearGradient-1)" x="4" y="4" width="40" height="40"></rect>
        <rect id="#879196-Border-Copy-5" stroke="#879196" stroke-width="2" x="1" y="1" width="46" height="46"></rect>
        <g id="Icon-Category/32/Business-Application_32" transform="translate(8.000000, 8.000000)" fill="#FFFFFF">
            <path d="M27.1915021,29 L4.80850205,29 L3.30850205,26 L28.6915021,26 L27.1915021,29 Z M6.50050205,13.786 C6.50050205,13.353 6.85250205,13 7.28650205,13 L9.50050205,13 L9.50050205,25 L6.50050205,25 L6.50050205,13.786 Z M11.0005021,11 C11.2765021,11 11.5005021,10.776 11.5005021,10.5 L11.5005021,9 L13.5005021,9 L13.5005021,25 L10.5005021,25 L10.5005021,11 L11.0005021,11 Z M14.5005021,25 L17.5005021,25 L17.5005021,6 L14.5005021,6 L14.5005021,25 Z M20.5005021,9 L20.5005021,10.5 C20.5005021,10.776 20.7235021,11 21.0005021,11 L21.5005021,11 L21.5005021,25 L18.5005021,25 L18.5005021,9 L20.5005021,9 Z M24.7135021,13 C25.1475021,13 25.5005021,13.353 25.5005021,13.786 L25.5005021,25 L22.5005021,25 L22.5005021,13 L24.7135021,13 Z M29.9255021,25.237 C29.8345021,25.09 29.6725021,25 29.5005021,25 L26.5005021,25 L26.5005021,13.786 C26.5005021,12.801 25.6995021,12 24.7135021,12 L22.5005021,12 L22.5005021,10.5 C22.5005021,10.224 22.2765021,10 22.0005021,10 L21.5005021,10 L21.5005021,8.5 C21.5005021,8.224 21.2765021,8 21.0005021,8 L18.5005021,8 L18.5005021,5.5 C18.5005021,5.224 18.2765021,5 18.0005021,5 L16.5005021,5 L16.5005021,2 L15.5005021,2 L15.5005021,5 L14.0005021,5 C13.7235021,5 13.5005021,5.224 13.5005021,5.5 L13.5005021,8 L11.0005021,8 C10.7235021,8 10.5005021,8.224 10.5005021,8.5 L10.5005021,10 L10.0005021,10 C9.72350205,10 9.50050205,10.224 9.50050205,10.5 L9.50050205,12 L7.28650205,12 C6.30050205,12 5.50050205,12.801 5.50050205,13.786 L5.50050205,25 L2.50050205,25 C2.32750205,25 2.16650205,25.09 2.07450205,25.237 C1.98350205,25.385 1.97550205,25.569 2.05250205,25.724 L4.05250205,29.724 C4.13750205,29.893 4.31050205,30 4.50050205,30 L27.5005021,30 C27.6895021,30 27.8625021,29.893 27.9475021,29.724 L29.9475021,25.724 C30.0245021,25.569 30.0165021,25.385 29.9255021,25.237 L29.9255021,25.237 Z" id="Business-Application_Category-Icon_32_Squid--"></path>
        </g>
    </g>
</svg>