<?xml version="1.0" encoding="UTF-8"?>
<svg width="40px" height="40px" viewBox="0 0 40 40" version="1.1" xmlns="http://www.w3.org/2000/svg" xmlns:xlink="http://www.w3.org/1999/xlink">
    <title>Icon-Architecture/32/Arch_Open-3D-Engine_32</title>
    <defs>
        <linearGradient x1="0%" y1="100%" x2="100%" y2="0%" id="linearGradient-1">
            <stop stop-color="#4D27A8" offset="0%"></stop>
            <stop stop-color="#A166FF" offset="100%"></stop>
        </linearGradient>
    </defs>
    <g id="Icon-Architecture/32/Arch_Open-3D-Engine_32" stroke="none" stroke-width="1" fill="none" fill-rule="evenodd">
        <g id="Rectangle" fill="url(#linearGradient-1)">
            <rect x="0" y="0" width="40" height="40"></rect>
        </g>
        <g id="Icon-Service/32/Open-3D-Engine_32" transform="translate(4.000000, 4.000000)" fill="#FFFFFF">
            <path d="M16,9.5 C19.584,9.5 22.5,12.416 22.5,16 C22.5,16.31 22.478,16.623 22.434,16.929 L23.424,17.071 C23.475,16.718 23.5,16.357 23.5,16 C23.5,11.864 20.136,8.5 16,8.5 C11.864,8.5 8.5,11.864 8.5,16 C8.5,18.749 10.001,21.274 12.417,22.59 L12.896,21.712 C10.801,20.571 9.5,18.382 9.5,16 C9.5,12.416 12.416,9.5 16,9.5 L16,9.5 Z M28.938,12.688 L26.981,12.688 C26.762,11.959 26.469,11.252 26.105,10.579 L27.49,9.194 C27.69,8.994 27.802,8.727 27.802,8.443 C27.802,8.159 27.691,7.892 27.49,7.691 L24.309,4.51 C23.894,4.096 23.219,4.097 22.806,4.51 L21.421,5.895 C20.746,5.532 20.04,5.238 19.313,5.019 L19.313,3.063 C19.313,2.477 18.836,2 18.25,2 L13.75,2 C13.164,2 12.687,2.477 12.687,3.063 L12.687,5.019 C11.96,5.238 11.254,5.532 10.579,5.895 L9.194,4.51 C8.781,4.097 8.106,4.096 7.691,4.51 L4.51,7.691 C4.309,7.892 4.198,8.159 4.198,8.443 C4.198,8.727 4.31,8.994 4.51,9.194 L5.895,10.579 C5.531,11.252 5.238,11.959 5.019,12.688 L3.062,12.688 C2.477,12.688 2,13.164 2,13.75 L2,18.25 C2,18.836 2.477,19.313 3.062,19.313 L5.019,19.313 C5.238,20.041 5.531,20.748 5.895,21.421 L4.51,22.806 C4.31,23.006 4.198,23.273 4.198,23.557 C4.198,23.841 4.309,24.108 4.51,24.309 L7.691,27.49 C7.892,27.691 8.159,27.801 8.442,27.801 C8.727,27.801 8.994,27.691 9.194,27.49 L10.563,26.121 C10.726,26.232 10.886,26.351 11.046,26.47 C11.593,26.875 12.158,27.294 12.872,27.483 L13.128,26.517 C12.6,26.377 12.134,26.032 11.642,25.666 C11.347,25.448 11.054,25.232 10.745,25.052 C10.548,24.937 10.301,24.971 10.14,25.131 L8.398,26.783 L5.217,23.513 L6.869,21.861 C7.029,21.7 7.062,21.452 6.947,21.256 C6.477,20.447 6.117,19.582 5.88,18.685 C5.822,18.465 5.623,18.313 5.396,18.313 L3,18.25 L3.062,13.687 L5.396,13.687 C5.623,13.687 5.822,13.535 5.88,13.315 C6.117,12.418 6.477,11.553 6.947,10.744 C7.062,10.548 7.029,10.3 6.869,10.139 L5.217,8.398 L8.487,5.217 L10.14,6.869 C10.301,7.029 10.547,7.061 10.745,6.948 C11.555,6.477 12.42,6.117 13.315,5.88 C13.535,5.822 13.687,5.624 13.687,5.397 L13.75,3 L18.313,3.063 L18.313,5.397 C18.313,5.624 18.465,5.822 18.685,5.88 C19.58,6.117 20.445,6.477 21.255,6.948 C21.453,7.062 21.699,7.03 21.86,6.869 L23.602,5.217 L26.783,8.487 L25.131,10.139 C24.971,10.3 24.938,10.548 25.053,10.744 C25.523,11.553 25.883,12.418 26.12,13.315 C26.178,13.535 26.377,13.687 26.604,13.687 L29,13.75 L29,17.531 L30,17.531 L30,13.75 C30,13.164 29.523,12.688 28.938,12.688 L28.938,12.688 Z M25.974,22.026 L26.974,22.026 L26.974,21.026 L25.974,21.026 L25.974,22.026 Z M28.9740012,27.752 L28.9740012,23.968 C28.338,24.619 27.453,25.026 26.474,25.026 C25.968,25.026 25.489,24.913 25.054,24.719 C25.681,26.194 26.842,28.928 27.834,28.928 C28.199,28.928 28.468,28.834 28.654,28.641 C28.978,28.307 28.9740012,27.757 28.9740012,27.752 L28.9740012,27.752 Z M18.893,24.719 C18.458,24.913 17.98,25.026 17.474,25.026 C16.494,25.026 15.61,24.619 14.9739884,23.968 L14.9739884,27.735 C14.9739884,27.754 14.967,28.308 15.297,28.645 C15.484,28.835 15.751,28.928 16.113,28.928 C17.105,28.928 18.266,26.194 18.893,24.719 L18.893,24.719 Z M14.974,21.526 C14.974,22.905 16.095,24.026 17.474,24.026 C18.853,24.026 19.974,22.905 19.974,21.526 C19.974,20.148 18.853,19.026 17.474,19.026 C16.095,19.026 14.974,20.148 14.974,21.526 L14.974,21.526 Z M22.974,21.526 C22.974,20.988 23.106,20.483 23.325,20.026 L20.623,20.026 C20.841,20.483 20.974,20.988 20.974,21.526 C20.974,22.065 20.841,22.57 20.623,23.026 L23.325,23.026 C23.106,22.57 22.974,22.065 22.974,21.526 L22.974,21.526 Z M23.974,21.526 C23.974,22.905 25.095,24.026 26.474,24.026 C27.853,24.026 28.974,22.905 28.974,21.526 C28.974,20.148 27.853,19.026 26.474,19.026 C25.095,19.026 23.974,20.148 23.974,21.526 L23.974,21.526 Z M29.974,27.735 C29.977,27.816 29.988,28.7 29.374,29.336 C28.994,29.729 28.476,29.928 27.834,29.928 C26.18,29.928 25.044,27.253 24.132,25.104 C23.96,24.699 23.804,24.329 23.662,24.026 L20.285,24.026 C20.144,24.329 19.987,24.699 19.815,25.104 C18.903,27.253 17.768,29.928 16.113,29.928 C15.472,29.928 14.954,29.729 14.574,29.336 C13.959,28.7 13.971,27.817 13.974,27.718 L13.974,21.526 C13.974,19.597 15.544,18.026 17.474,18.026 C18.424,18.026 19.284,18.41 19.915,19.026 L24.032,19.026 C24.663,18.41 25.524,18.026 26.474,18.026 C28.403,18.026 29.974,19.597 29.974,21.526 L29.974,27.735 Z M16.974,22.026 L15.974,22.026 L15.974,21.026 L16.974,21.026 L16.974,20.026 L17.974,20.026 L17.974,21.026 L18.974,21.026 L18.974,22.026 L17.974,22.026 L17.974,23.026 L16.974,23.026 L16.974,22.026 Z" id="Fill-5"></path>
        </g>
    </g>
</svg>